M48
; DRILL file {KiCad 7.0.10} date 
; FORMAT={-:-/ absolute / inch / decimal}
; #@! TF.CreationDate,2024-07-31T12:39:55+02:00
; #@! TF.GenerationSoftware,Kicad,Pcbnew,7.0.10
; #@! TF.FileFunction,Plated,1,4,PTH
FMAT,2
INCH
; #@! TA.AperFunction,Plated,PTH,ViaDrill
T1C0.0118
; #@! TA.AperFunction,Plated,PTH,ViaDrill
T2C0.0157
; #@! TA.AperFunction,Plated,PTH,ComponentDrill
T3C0.0256
; #@! TA.AperFunction,Plated,PTH,ComponentDrill
T4C0.0295
; #@! TA.AperFunction,Plated,PTH,ComponentDrill
T5C0.0394
; #@! TA.AperFunction,Plated,PTH,ComponentDrill
T6C0.0433
; #@! TA.AperFunction,Plated,PTH,ComponentDrill
T7C0.0559
; #@! TA.AperFunction,Plated,PTH,ComponentDrill
T8C0.1575
%
G90
G05
T1
X-3.0031Y-0.6287
X-2.998Y-0.063
X-2.9902Y0.815
X-2.9689Y1.3039
X-2.9685Y0.3858
X-2.9646Y0.622
X-2.9646Y-0.1929
X-2.9528Y0.2638
X-2.9488Y-0.4528
X-2.939Y0.0984
X-2.9311Y-0.0236
X-2.9257Y1.2921
X-2.9256Y1.2593
X-2.9193Y-1.372
X-2.9173Y0.6831
X-2.9094Y-0.7874
X-2.9037Y0.7931
X-2.8937Y-1.0315
X-2.872Y0.5256
X-2.8701Y0.3622
X-2.8661Y0.6654
X-2.8661Y-1.189
X-2.8602Y0.75
X-2.8583Y-0.1457
X-2.8465Y-0.3504
X-2.8314Y-1.1008
X-2.8285Y-1.1424
X-2.8272Y1.3512
X-2.8268Y-0.8661
X-2.8268Y-1.3425
X-2.8181Y-0.0142
X-2.815Y-0.4921
X-2.808Y-0.7952
X-2.8012Y0.6693
X-2.7992Y0.1102
X-2.7953Y0.2165
X-2.7937Y0.8354
X-2.7697Y0.4508
X-2.75Y-0.2579
X-2.7483Y0.7799
X-2.7303Y0.4547
X-2.7224Y-0.0197
X-2.7205Y-0.1496
X-2.7087Y0.4882
X-2.7087Y-1.3917
X-2.7083Y-0.6016
X-2.7062Y-0.8342
X-2.6929Y0.5236
X-2.6895Y-1.3205
X-2.6772Y-0.4567
X-2.6752Y0.0748
X-2.6732Y0.1594
X-2.6668Y0.7815
X-2.6535Y-0.0315
X-2.6496Y0.2795
X-2.6457Y2.0079
X-2.6339Y-0.872
X-2.6339Y-1.0
X-2.6339Y-1.1515
X-2.6339Y-1.2205
X-2.626Y-0.1299
X-2.6181Y2.0079
X-2.6083Y-0.6024
X-2.6083Y-0.8307
X-2.6083Y-1.3957
X-2.5925Y-1.2795
X-2.5921Y0.3969
X-2.5906Y2.0079
X-2.5906Y-1.0984
X-2.5866Y0.1457
X-2.5846Y-0.0236
X-2.5807Y-0.4567
X-2.563Y2.0079
X-2.5551Y-1.3386
X-2.5354Y2.0079
X-2.5262Y-0.3332
X-2.524Y0.426
X-2.5118Y0.0768
X-2.5079Y2.0079
X-2.5079Y-0.8248
X-2.5079Y-1.3957
X-2.5075Y-0.5972
X-2.5039Y0.2047
X-2.5039Y-1.2913
X-2.4921Y0.2953
X-2.4843Y-0.1339
X-2.4823Y-0.5118
X-2.4783Y-0.9823
X-2.4488Y-1.248
X-2.4471Y-0.973
X-2.4449Y-0.2205
X-2.4409Y-1.1875
X-2.4388Y-1.2193
X-2.437Y-0.0728
X-2.4331Y-1.3445
X-2.4325Y-1.2829
X-2.4299Y0.2724
X-2.4173Y-1.0039
X-2.4094Y-1.4331
X-2.4085Y-0.7908
X-2.4083Y-0.5614
X-2.4035Y0.1417
X-2.3957Y0.2047
X-2.3803Y0.7665
X-2.378Y-1.185
X-2.3622Y0.2559
X-2.3543Y-0.315
X-2.3425Y-0.0276
X-2.3273Y-1.3333
X-2.311Y-0.4724
X-2.3106Y-0.8303
X-2.3071Y0.0512
X-2.3071Y-1.4291
X-2.3033Y-1.3641
X-2.3031Y-0.2244
X-2.2984Y-0.5409
X-2.2913Y-0.1339
X-2.2795Y-1.185
X-2.2776Y-1.0748
X-2.2776Y-1.2992
X-2.2756Y-0.8746
X-2.2756Y-1.1437
X-2.274Y0.6858
X-2.2736Y-1.1102
X-2.2717Y-0.4016
X-2.2494Y-1.2916
X-2.248Y0.252
X-2.248Y-1.1772
X-2.2445Y0.4213
X-2.2441Y0.2047
X-2.2421Y-0.311
X-2.2402Y-1.2535
X-2.2362Y-0.4709
X-2.2327Y-0.0453
X-2.2244Y-1.002
X-2.218Y-0.8528
X-2.2175Y-1.299
X-2.2145Y-1.2307
X-2.21Y-0.2197
X-2.2087Y-1.4331
X-2.2071Y0.0539
X-2.2071Y-0.598
X-2.207Y-0.7976
X-2.1969Y-1.1256
X-2.1929Y0.5
X-2.1845Y-0.9827
X-2.1836Y-1.2196
X-2.1811Y0.3445
X-2.1811Y-1.0734
X-2.1736Y0.7528
X-2.1667Y-0.9364
X-2.1638Y-0.4933
X-2.1634Y-1.1256
X-2.1634Y-1.1782
X-2.1559Y-0.3713
X-2.15Y1.3039
X-2.1441Y-0.072
X-2.1417Y0.2539
X-2.1398Y-0.2756
X-2.1392Y-0.1295
X-2.1378Y0.6417
X-2.1334Y-0.9405
X-2.1323Y-0.0201
X-2.1283Y-0.4185
X-2.1221Y-1.2833
X-2.122Y-0.9961
X-2.122Y-1.0892
X-2.1215Y-1.2169
X-2.1087Y-0.6024
X-2.1084Y-1.3894
X-2.107Y1.2593
X-2.1067Y1.2929
X-2.1063Y0.3976
X-2.1063Y-0.7874
X-2.1008Y0.8217
X-2.0965Y-1.1782
X-2.0939Y-0.328
X-2.0794Y-1.2987
X-2.0776Y0.2028
X-2.0689Y-1.1998
X-2.063Y0.5315
X-2.061Y-1.2717
X-2.0585Y-0.0888
X-2.0556Y-0.988
X-2.0535Y-0.4874
X-2.0512Y0.252
X-2.0447Y-0.9551
X-2.0433Y-1.0295
X-2.0417Y-0.1341
X-2.0374Y-1.0892
X-2.0348Y-0.3256
X-2.0276Y0.1496
X-2.0256Y0.7461
X-2.0256Y0.3445
X-2.0236Y-1.2717
X-2.022Y-0.9315
X-2.0191Y-0.1929
X-2.0137Y1.3512
X-2.0079Y-0.8262
X-2.0079Y-1.3937
X-2.0063Y-0.5984
X-2.0055Y0.835
X-2.0034Y-1.0122
X-2.0012Y-0.5417
X-2.0004Y-0.1341
X-1.9823Y-1.2146
X-1.9811Y-0.089
X-1.9803Y0.4291
X-1.9656Y-0.3035
X-1.9646Y0.6732
X-1.9608Y-0.1882
X-1.9508Y-1.2293
X-1.948Y0.2524
X-1.9469Y0.4547
X-1.9458Y-0.9669
X-1.9449Y-0.0315
X-1.9397Y-0.8661
X-1.937Y0.5433
X-1.935Y0.7717
X-1.9339Y-1.0892
X-1.9246Y-1.0065
X-1.9227Y-0.9134
X-1.9191Y-0.0874
X-1.9134Y0.5669
X-1.9114Y0.0531
X-1.9082Y-1.4292
X-1.9079Y-0.5917
X-1.9069Y-0.8321
X-1.9047Y0.4839
X-1.9033Y-0.4311
X-1.9024Y-0.2665
X-1.8994Y-0.1929
X-1.8937Y0.1994
X-1.893Y-0.3276
X-1.8878Y-1.3573
X-1.8858Y-0.0236
X-1.878Y0.1496
X-1.8736Y-0.4724
X-1.8583Y-0.9134
X-1.8538Y0.7811
X-1.8524Y0.2539
X-1.8465Y-1.2441
X-1.8459Y-1.0453
X-1.8445Y-0.8701
X-1.8391Y-1.1055
X-1.8386Y-0.0315
X-1.8327Y-1.0039
X-1.8189Y-0.8465
X-1.8134Y-0.0858
X-1.8071Y-1.4252
X-1.8063Y-0.4964
X-1.8051Y-0.3266
X-1.8035Y-0.135
X-1.7819Y-0.1902
X-1.7789Y-1.2165
X-1.7789Y-1.2767
X-1.7677Y-0.0315
X-1.7622Y-0.135
X-1.7441Y-1.0906
X-1.7382Y0.4114
X-1.7343Y-1.0039
X-1.7323Y0.2559
X-1.7297Y-0.078
X-1.7287Y0.339
X-1.7268Y-0.3083
X-1.7264Y-1.25
X-1.7244Y0.1535
X-1.7228Y-0.1311
X-1.7205Y0.2067
X-1.7165Y-0.0169
X-1.7115Y-0.8358
X-1.7087Y0.0579
X-1.7087Y-1.3937
X-1.7071Y-0.5642
X-1.7004Y-0.4906
X-1.6969Y-1.0827
X-1.6961Y-1.0488
X-1.6902Y-0.3831
X-1.6736Y-0.0567
X-1.6725Y-1.3564
X-1.6654Y-0.872
X-1.6622Y-0.2657
X-1.652Y-0.1193
X-1.6451Y-1.3449
X-1.6451Y-1.1116
X-1.6437Y-1.0504
X-1.6429Y0.4299
X-1.6409Y0.3016
X-1.6283Y0.615
X-1.6264Y-0.4854
X-1.6146Y-0.3388
X-1.6103Y-0.8346
X-1.6087Y-0.5917
X-1.6083Y-1.3976
X-1.5929Y-1.0508
X-1.5906Y0.2402
X-1.5856Y-1.353
X-1.5732Y-0.0957
X-1.5689Y-1.002
X-1.5664Y-1.089
X-1.5654Y0.7661
X-1.5654Y-0.135
X-1.5585Y-0.3266
X-1.5416Y-1.2357
X-1.5413Y0.1004
X-1.5388Y-0.9925
X-1.5384Y-0.1886
X-1.5276Y-0.9134
X-1.5256Y-1.1988
X-1.524Y-0.135
X-1.5118Y-1.0512
X-1.5114Y-1.2762
X-1.51Y-0.8433
X-1.5083Y-0.5917
X-1.5079Y-1.3996
X-1.498Y-0.0945
X-1.4744Y-0.2205
X-1.4744Y-0.3425
X-1.465Y0.615
X-1.4591Y0.6858
X-1.4488Y-0.4272
X-1.4409Y0.2106
X-1.4362Y-0.0614
X-1.4331Y-0.1764
X-1.4327Y-0.289
X-1.4173Y0.1024
X-1.4083Y-0.791
X-1.4075Y-1.3996
X-1.3996Y0.0591
X-1.3937Y-0.3937
X-1.3898Y0.4705
X-1.3858Y0.5402
X-1.3819Y-0.4843
X-1.374Y-0.2165
X-1.3681Y-0.0669
X-1.3642Y-0.1417
X-1.3543Y0.6496
X-1.3539Y0.376
X-1.3484Y0.3031
X-1.3465Y-1.0315
X-1.3445Y-0.2756
X-1.335Y1.3
X-1.3307Y0.2087
X-1.3228Y-0.9055
X-1.313Y0.0551
X-1.311Y-0.0039
X-1.3091Y-0.8386
X-1.3071Y-0.6024
X-1.3071Y-1.3976
X-1.3031Y0.1024
X-1.2992Y0.7402
X-1.2953Y-1.1004
X-1.2953Y-1.1575
X-1.2953Y-1.2126
X-1.2898Y1.2593
X-1.2894Y1.2929
X-1.2839Y0.8256
X-1.2795Y-1.3406
X-1.2736Y0.502
X-1.2638Y0.2992
X-1.252Y-0.1358
X-1.2484Y-0.3642
X-1.2382Y-0.2941
X-1.2283Y-0.6535
X-1.2228Y0.6209
X-1.2197Y-0.0606
X-1.2146Y0.2055
X-1.2087Y-0.5984
X-1.2067Y-0.8366
X-1.2028Y-1.1063
X-1.2028Y-1.2323
X-1.2008Y-0.5118
X-1.1984Y0.7406
X-1.1933Y0.8354
X-1.1925Y1.3512
X-1.1772Y0.3898
X-1.1713Y0.122
X-1.1693Y0.2953
X-1.1618Y0.5283
X-1.1575Y-0.9055
X-1.1575Y-0.9665
X-1.1547Y0.6929
X-1.1547Y0.6358
X-1.1535Y-1.0236
X-1.1358Y-1.3169
X-1.1083Y-1.3898
X-1.1075Y-0.6024
X-1.1063Y-0.2717
X-1.1063Y-0.4606
X-1.0909Y0.5638
X-1.0906Y0.4528
X-1.087Y0.489
X-1.0776Y0.7807
X-1.0768Y-0.0709
X-1.0748Y0.2087
X-1.0433Y-1.3524
X-1.0217Y0.7815
X-1.0197Y-1.0906
X-1.0197Y-1.126
X-1.0138Y0.0591
X-1.0098Y-0.9705
X-1.0098Y-1.311
X-1.0079Y-0.4213
X-1.0079Y-0.8386
X-0.998Y0.1181
X-0.9882Y2.0079
X-0.9882Y-0.6063
X-0.9868Y-0.3555
X-0.9803Y0.2992
X-0.9803Y-0.1429
X-0.9606Y2.0079
X-0.9567Y-0.4764
X-0.9492Y0.4339
X-0.9409Y0.2717
X-0.9409Y0.1693
X-0.9391Y-0.3453
X-0.9331Y2.0079
X-0.9204Y-0.2317
X-0.9114Y0.0551
X-0.9094Y-0.6535
X-0.9055Y2.0079
X-0.9016Y0.2362
X-0.8918Y-0.3453
X-0.878Y2.0079
X-0.8661Y-0.19
X-0.8587Y0.4299
X-0.8504Y2.0079
X-0.8504Y0.3661
X-0.8185Y0.3
X-0.815Y-0.19
X-0.815Y-0.2795
X-0.7913Y0.5669
X-0.7894Y0.0551
X-0.7835Y-0.3543
X-0.7835Y-0.4409
X-0.7795Y0.185
X-0.7795Y-0.1732
X-0.772Y0.4476
X-0.7697Y-0.0315
X-0.7677Y-0.1033
X-0.7445Y0.7665
X-0.7087Y-0.5866
X-0.6953Y0.5657
X-0.6732Y-0.1063
X-0.6732Y-0.3937
X-0.6693Y-0.2992
X-0.6594Y0.1063
X-0.65Y0.6307
X-0.6496Y0.2362
X-0.6496Y-0.1732
X-0.6476Y-0.4724
X-0.6402Y0.6858
X-0.626Y0.0433
X-0.6181Y-0.2126
X-0.5673Y0.5559
X-0.5399Y-0.6502
X-0.5315Y-0.4252
X-0.5157Y0.122
X-0.5134Y1.3047
X-0.5122Y0.8512
X-0.5118Y0.4106
X-0.5106Y0.2598
X-0.4091Y0.7343
X-0.4051Y0.3209
X-0.4051Y-0.5276
X-0.4035Y1.1693
X-0.4031Y1.4724
X-0.3697Y0.3917
X-0.3287Y-0.0256
X-0.3264Y-0.3228
X-0.3146Y1.5591
X-0.2874Y0.4902
X-0.287Y1.501
X-0.287Y1.4736
X-0.2866Y1.418
X-0.2866Y1.3905
X-0.2862Y1.4461
X-0.2713Y0.6437
X-0.2594Y1.4736
X-0.2591Y1.501
X-0.2591Y1.418
X-0.2591Y1.3905
X-0.2587Y1.4461
X-0.2437Y-0.1004
X-0.2398Y-0.252
X-0.2358Y1.7598
X-0.2319Y1.5012
X-0.2319Y1.4736
X-0.2315Y1.3905
X-0.2311Y1.4461
X-0.2311Y1.4185
X-0.224Y0.7657
X-0.2104Y0.6126
X-0.1842Y1.6114
X-0.1748Y-0.25
X-0.1705Y-0.1998
X-0.1538Y1.4902
X-0.1531Y1.4409
X-0.1496Y1.0748
X-0.1295Y0.7618
X-0.1217Y1.7402
X-0.1177Y1.6575
X-0.1142Y-0.0236
X-0.1118Y-0.0984
X-0.0984Y0.4961
X-0.098Y1.5571
X-0.0941Y-0.378
X-0.0906Y1.3366
X-0.0862Y0.3406
X-0.0862Y0.2776
X-0.0823Y-0.5276
T2
X-2.8203Y0.6236
X-2.8203Y0.5906
X-2.8189Y0.5571
X-2.7874Y0.624
X-2.7795Y0.5906
X-2.7795Y0.5571
X-2.7539Y0.624
X-2.7461Y0.5906
X-2.7461Y0.5571
X-2.7441Y1.5392
X-2.7244Y1.5146
X-2.7205Y0.624
X-2.7047Y1.5392
X-2.687Y0.624
X-2.685Y1.5146
X-2.6654Y1.5392
X-2.6457Y1.5146
X-2.6264Y1.539
X-2.6067Y1.5144
X-2.587Y1.539
X-2.5673Y1.5144
X-2.5476Y1.539
X-2.528Y1.5144
X-2.5083Y1.539
X-2.5043Y1.3217
X-2.4886Y1.5144
X-2.4689Y1.539
X-2.4492Y1.5144
X-2.4295Y1.539
X-2.4098Y1.5144
X-2.3902Y1.539
X-2.3701Y1.5146
X-2.3504Y1.5392
X-2.3465Y0.5433
X-2.3307Y1.5146
X-2.311Y1.5392
X-2.311Y0.4606
X-2.2913Y1.5146
X-2.2913Y0.5276
X-1.926Y1.5394
X-1.9063Y1.5148
X-1.8866Y1.5394
X-1.8669Y1.5148
X-1.8472Y1.5394
X-1.8276Y1.5148
X-1.8083Y1.5392
X-1.7886Y1.5146
X-1.7689Y1.5392
X-1.7492Y1.5146
X-1.7295Y1.5392
X-1.7098Y1.5146
X-1.6902Y1.5392
X-1.6882Y1.3224
X-1.6705Y1.5146
X-1.6508Y1.5392
X-1.6311Y1.5146
X-1.6114Y1.5392
X-1.5917Y1.5146
X-1.572Y1.5392
X-1.552Y1.5148
X-1.5323Y1.5394
X-1.5299Y0.5441
X-1.5126Y1.5148
X-1.4945Y0.487
X-1.4929Y1.5394
X-1.4764Y0.5236
X-1.4732Y1.5148
X-1.1083Y1.5386
X-1.0886Y1.514
X-1.0689Y1.5386
X-1.0492Y1.514
X-1.0295Y1.5386
X-1.0098Y1.514
X-0.9906Y1.5384
X-0.9709Y1.5138
X-0.9512Y1.5384
X-0.9315Y1.5138
X-0.9118Y1.5384
X-0.8921Y1.5138
X-0.8724Y1.5384
X-0.8673Y1.3232
X-0.8528Y1.5138
X-0.8331Y1.5384
X-0.8134Y1.5138
X-0.7937Y1.5384
X-0.774Y1.5138
X-0.7543Y1.5384
X-0.7343Y1.514
X-0.7146Y1.5386
X-0.6949Y1.514
X-0.6752Y1.5386
X-0.6717Y0.5362
X-0.6717Y0.489
X-0.6555Y1.514
X-0.6382Y0.5126
X-0.3106Y-0.1299
X-0.2988Y0.8091
X-0.2752Y-0.4134
X-0.2713Y-0.5315
X-0.2713Y-0.6339
X-0.2476Y1.811
X-0.2142Y0.5768
X-0.1866Y1.2815
X-0.1866Y1.2343
X-0.1728Y-0.2933
X-0.1704Y0.4456
X-0.1024Y0.878
T4
X-0.5535Y-0.5126
X-0.5535Y-0.5913
X-0.5531Y0.048
X-0.5531Y-0.0307
X-0.5531Y-0.1094
X-0.5531Y-0.1882
X-0.5531Y-0.2669
X-0.5531Y-0.3457
X-0.2555Y0.5295
X-0.2555Y0.4508
X-0.2555Y0.372
X-0.2555Y0.2933
T5
X-2.9803Y0.7598
X-2.9803Y0.4724
X-1.7717Y0.4744
X-1.466Y-0.9148
X-1.466Y-1.0148
X-1.466Y-1.1148
X-1.466Y-1.2148
X-1.466Y-1.3148
X-0.5295Y0.7598
X-0.5295Y0.4724
X-0.3898Y1.8197
X-0.3898Y-0.6319
X-0.1039Y0.5965
X-0.102Y1.8189
X-0.102Y-0.6319
T6
X-2.8134Y1.2783
X-2.8119Y0.9201
X-2.7134Y1.2783
X-2.7119Y0.9201
X-2.6134Y1.2783
X-2.6119Y0.9201
X-2.4164Y1.2803
X-2.415Y0.9201
X-2.3164Y1.2803
X-2.315Y0.9201
X-2.2164Y1.2803
X-2.215Y0.9201
X-1.9984Y1.2783
X-1.9976Y0.9201
X-1.8984Y1.2783
X-1.8976Y0.9201
X-1.7984Y1.2783
X-1.7976Y0.9201
X-1.602Y1.2783
X-1.602Y0.9201
X-1.502Y1.2783
X-1.502Y0.9201
X-1.402Y1.2783
X-1.402Y0.9201
X-1.1768Y1.2783
X-1.1768Y0.9201
X-1.0768Y1.2783
X-1.0768Y0.9201
X-0.9768Y1.2783
X-0.9768Y0.9201
X-0.7811Y1.2783
X-0.7811Y0.9201
X-0.6811Y1.2783
X-0.6811Y0.9201
X-0.5811Y1.2783
X-0.5811Y0.9201
T7
X-2.9578Y0.0234
X-2.9578Y-0.5766
X-2.9373Y-0.811
X-2.9373Y-1.411
X-2.9373Y-1.411
X-2.8578Y0.0234
X-2.8578Y-0.5766
X-2.8373Y-0.811
X-2.8373Y-1.411
X-2.8373Y-1.411
X-2.7578Y0.0234
X-2.7578Y-0.5766
X-2.7373Y-0.811
X-2.7373Y-1.411
X-2.7373Y-1.411
X-2.6578Y0.0234
X-2.6578Y-0.5766
X-2.6373Y-0.811
X-2.6373Y-1.411
X-2.6373Y-1.411
X-2.5578Y0.0234
X-2.5578Y-0.5766
X-2.5373Y-0.811
X-2.5373Y-1.411
X-2.5373Y-1.411
X-2.4578Y0.0234
X-2.4578Y-0.5766
X-2.4373Y-0.811
X-2.4373Y-1.411
X-2.4373Y-1.411
X-2.3587Y0.0238
X-2.3578Y-0.5766
X-2.3382Y-0.8106
X-2.3373Y-1.411
X-2.3373Y-1.411
X-2.2578Y0.0234
X-2.2578Y-0.5766
X-2.2373Y-0.811
X-2.2373Y-1.411
X-2.2373Y-1.411
X-2.1578Y0.0234
X-2.1578Y-0.5766
X-2.1373Y-0.811
X-2.1373Y-1.411
X-2.1373Y-1.411
X-2.0578Y0.0234
X-2.0578Y-0.5766
X-2.0373Y-0.811
X-2.0373Y-1.411
X-2.0373Y-1.411
X-1.9578Y0.0234
X-1.9578Y-0.5766
X-1.9373Y-0.811
X-1.9373Y-1.411
X-1.9373Y-1.411
X-1.8578Y0.0234
X-1.8578Y-0.5766
X-1.8373Y-0.811
X-1.8373Y-1.411
X-1.8373Y-1.411
X-1.7578Y0.0234
X-1.7578Y-0.5766
X-1.7373Y-0.811
X-1.7373Y-1.411
X-1.7373Y-1.411
X-1.6578Y0.0234
X-1.6578Y-0.5766
X-1.6373Y-0.811
X-1.6373Y-1.411
X-1.6373Y-1.411
X-1.5578Y0.0234
X-1.5578Y-0.5766
X-1.5373Y-0.811
X-1.5373Y-1.411
X-1.4578Y0.0234
X-1.4578Y-0.5766
X-1.4373Y-0.811
X-1.4373Y-1.411
X-1.3578Y0.0234
X-1.3578Y-0.5766
X-1.3373Y-0.811
X-1.3373Y-1.411
X-1.2578Y0.0234
X-1.2578Y-0.5766
X-1.2373Y-0.811
X-1.2373Y-1.411
X-1.1578Y0.0234
X-1.1578Y-0.5766
X-1.1373Y-0.811
X-1.1373Y-1.411
X-1.0578Y0.0234
X-1.0578Y-0.5766
X-1.0373Y-0.811
X-1.0373Y-1.411
T8
X-2.3386Y1.115
X-1.5197Y1.1142
X-0.7008Y1.1142
T3
G00X-2.9741Y-0.9417
M15
G01X-2.9977Y-0.9417
M16
G05
G00X-2.9741Y-1.2819
M15
G01X-2.9977Y-1.2819
M16
G05
G00X-2.7997Y-0.9417
M15
G01X-2.843Y-0.9417
M16
G05
G00X-2.7997Y-1.2819
M15
G01X-2.843Y-1.2819
M16
G05
M30
