%TF.GenerationSoftware,KiCad,Pcbnew,7.0.10*%
%TF.CreationDate,2024-07-31T12:40:02+02:00*%
%TF.ProjectId,foc,666f632e-6b69-4636-9164-5f7063625858,rev?*%
%TF.SameCoordinates,PXc0145d0PY6b671e0*%
%TF.FileFunction,Legend,Bot*%
%TF.FilePolarity,Positive*%
%FSLAX46Y46*%
G04 Gerber Fmt 4.6, Leading zero omitted, Abs format (unit mm)*
G04 Created by KiCad (PCBNEW 7.0.10) date 2024-07-31 12:40:02*
%MOMM*%
%LPD*%
G01*
G04 APERTURE LIST*
%ADD10C,0.040000*%
%ADD11C,0.150000*%
%ADD12C,0.125000*%
%ADD13C,0.120000*%
G04 APERTURE END LIST*
D10*
X-25110000Y2626327D02*
X-76930064Y2626328D01*
X-76930064Y-16793286D02*
X-25110000Y-16793285D01*
X-25110000Y-16793285D02*
X-25110000Y2626327D01*
X-78049218Y-2148513D02*
X-78049218Y-12008513D01*
X-78049218Y-2148513D02*
X-76930064Y-2146329D01*
X-76930065Y-12008513D02*
X-76930064Y-16793286D01*
X-76930064Y2626328D02*
X-76930064Y-2146329D01*
X-78049218Y-12008513D02*
X-76930065Y-12008513D01*
D11*
X-53966670Y60667300D02*
X-54033336Y60633967D01*
X-54033336Y60633967D02*
X-54166670Y60633967D01*
X-54166670Y60633967D02*
X-54233336Y60667300D01*
X-54233336Y60667300D02*
X-54266670Y60733967D01*
X-54266670Y60733967D02*
X-54266670Y60767300D01*
X-54266670Y60767300D02*
X-54233336Y60833967D01*
X-54233336Y60833967D02*
X-54166670Y60867300D01*
X-54166670Y60867300D02*
X-54066670Y60867300D01*
X-54066670Y60867300D02*
X-54000003Y60900634D01*
X-54000003Y60900634D02*
X-53966670Y60967300D01*
X-53966670Y60967300D02*
X-53966670Y61000634D01*
X-53966670Y61000634D02*
X-54000003Y61067300D01*
X-54000003Y61067300D02*
X-54066670Y61100634D01*
X-54066670Y61100634D02*
X-54166670Y61100634D01*
X-54166670Y61100634D02*
X-54233336Y61067300D01*
X-54866670Y61100634D02*
X-54866670Y60633967D01*
X-54566670Y61100634D02*
X-54566670Y60733967D01*
X-54566670Y60733967D02*
X-54600003Y60667300D01*
X-54600003Y60667300D02*
X-54666670Y60633967D01*
X-54666670Y60633967D02*
X-54766670Y60633967D01*
X-54766670Y60633967D02*
X-54833337Y60667300D01*
X-54833337Y60667300D02*
X-54866670Y60700634D01*
X-55200003Y61100634D02*
X-55200003Y60400634D01*
X-55200003Y61067300D02*
X-55266670Y61100634D01*
X-55266670Y61100634D02*
X-55400003Y61100634D01*
X-55400003Y61100634D02*
X-55466670Y61067300D01*
X-55466670Y61067300D02*
X-55500003Y61033967D01*
X-55500003Y61033967D02*
X-55533336Y60967300D01*
X-55533336Y60967300D02*
X-55533336Y60767300D01*
X-55533336Y60767300D02*
X-55500003Y60700634D01*
X-55500003Y60700634D02*
X-55466670Y60667300D01*
X-55466670Y60667300D02*
X-55400003Y60633967D01*
X-55400003Y60633967D02*
X-55266670Y60633967D01*
X-55266670Y60633967D02*
X-55200003Y60667300D01*
X-55833336Y61100634D02*
X-55833336Y60400634D01*
X-55833336Y61067300D02*
X-55900003Y61100634D01*
X-55900003Y61100634D02*
X-56033336Y61100634D01*
X-56033336Y61100634D02*
X-56100003Y61067300D01*
X-56100003Y61067300D02*
X-56133336Y61033967D01*
X-56133336Y61033967D02*
X-56166669Y60967300D01*
X-56166669Y60967300D02*
X-56166669Y60767300D01*
X-56166669Y60767300D02*
X-56133336Y60700634D01*
X-56133336Y60700634D02*
X-56100003Y60667300D01*
X-56100003Y60667300D02*
X-56033336Y60633967D01*
X-56033336Y60633967D02*
X-55900003Y60633967D01*
X-55900003Y60633967D02*
X-55833336Y60667300D01*
X-56566669Y60633967D02*
X-56500002Y60667300D01*
X-56500002Y60667300D02*
X-56466669Y60733967D01*
X-56466669Y60733967D02*
X-56466669Y61333967D01*
X-56766669Y61100634D02*
X-56933336Y60633967D01*
X-57100003Y61100634D02*
X-56933336Y60633967D01*
X-56933336Y60633967D02*
X-56866669Y60467300D01*
X-56866669Y60467300D02*
X-56833336Y60433967D01*
X-56833336Y60433967D02*
X-56766669Y60400634D01*
X-57833335Y61100634D02*
X-57966669Y60633967D01*
X-57966669Y60633967D02*
X-58100002Y60967300D01*
X-58100002Y60967300D02*
X-58233335Y60633967D01*
X-58233335Y60633967D02*
X-58366669Y61100634D01*
X-58633335Y60633967D02*
X-58633335Y61100634D01*
X-58633335Y61333967D02*
X-58600002Y61300634D01*
X-58600002Y61300634D02*
X-58633335Y61267300D01*
X-58633335Y61267300D02*
X-58666668Y61300634D01*
X-58666668Y61300634D02*
X-58633335Y61333967D01*
X-58633335Y61333967D02*
X-58633335Y61267300D01*
X-58966668Y60633967D02*
X-58966668Y61100634D01*
X-58966668Y60967300D02*
X-59000001Y61033967D01*
X-59000001Y61033967D02*
X-59033335Y61067300D01*
X-59033335Y61067300D02*
X-59100001Y61100634D01*
X-59100001Y61100634D02*
X-59166668Y61100634D01*
X-59666668Y60667300D02*
X-59600001Y60633967D01*
X-59600001Y60633967D02*
X-59466668Y60633967D01*
X-59466668Y60633967D02*
X-59400001Y60667300D01*
X-59400001Y60667300D02*
X-59366668Y60733967D01*
X-59366668Y60733967D02*
X-59366668Y61000634D01*
X-59366668Y61000634D02*
X-59400001Y61067300D01*
X-59400001Y61067300D02*
X-59466668Y61100634D01*
X-59466668Y61100634D02*
X-59600001Y61100634D01*
X-59600001Y61100634D02*
X-59666668Y61067300D01*
X-59666668Y61067300D02*
X-59700001Y61000634D01*
X-59700001Y61000634D02*
X-59700001Y60933967D01*
X-59700001Y60933967D02*
X-59366668Y60867300D01*
X-59966668Y60667300D02*
X-60033334Y60633967D01*
X-60033334Y60633967D02*
X-60166668Y60633967D01*
X-60166668Y60633967D02*
X-60233334Y60667300D01*
X-60233334Y60667300D02*
X-60266668Y60733967D01*
X-60266668Y60733967D02*
X-60266668Y60767300D01*
X-60266668Y60767300D02*
X-60233334Y60833967D01*
X-60233334Y60833967D02*
X-60166668Y60867300D01*
X-60166668Y60867300D02*
X-60066668Y60867300D01*
X-60066668Y60867300D02*
X-60000001Y60900634D01*
X-60000001Y60900634D02*
X-59966668Y60967300D01*
X-59966668Y60967300D02*
X-59966668Y61000634D01*
X-59966668Y61000634D02*
X-60000001Y61067300D01*
X-60000001Y61067300D02*
X-60066668Y61100634D01*
X-60066668Y61100634D02*
X-60166668Y61100634D01*
X-60166668Y61100634D02*
X-60233334Y61067300D01*
X-61366668Y60667300D02*
X-61300001Y60633967D01*
X-61300001Y60633967D02*
X-61166668Y60633967D01*
X-61166668Y60633967D02*
X-61100001Y60667300D01*
X-61100001Y60667300D02*
X-61066668Y60733967D01*
X-61066668Y60733967D02*
X-61066668Y61000634D01*
X-61066668Y61000634D02*
X-61100001Y61067300D01*
X-61100001Y61067300D02*
X-61166668Y61100634D01*
X-61166668Y61100634D02*
X-61300001Y61100634D01*
X-61300001Y61100634D02*
X-61366668Y61067300D01*
X-61366668Y61067300D02*
X-61400001Y61000634D01*
X-61400001Y61000634D02*
X-61400001Y60933967D01*
X-61400001Y60933967D02*
X-61066668Y60867300D01*
X-61633334Y60633967D02*
X-62000001Y61100634D01*
X-61633334Y61100634D02*
X-62000001Y60633967D01*
X-62266668Y60633967D02*
X-62266668Y61100634D01*
X-62266668Y61333967D02*
X-62233335Y61300634D01*
X-62233335Y61300634D02*
X-62266668Y61267300D01*
X-62266668Y61267300D02*
X-62300001Y61300634D01*
X-62300001Y61300634D02*
X-62266668Y61333967D01*
X-62266668Y61333967D02*
X-62266668Y61267300D01*
X-62500001Y61100634D02*
X-62766668Y61100634D01*
X-62600001Y61333967D02*
X-62600001Y60733967D01*
X-62600001Y60733967D02*
X-62633334Y60667300D01*
X-62633334Y60667300D02*
X-62700001Y60633967D01*
X-62700001Y60633967D02*
X-62766668Y60633967D01*
X-63633334Y60633967D02*
X-63566667Y60667300D01*
X-63566667Y60667300D02*
X-63533334Y60700634D01*
X-63533334Y60700634D02*
X-63500001Y60767300D01*
X-63500001Y60767300D02*
X-63500001Y60967300D01*
X-63500001Y60967300D02*
X-63533334Y61033967D01*
X-63533334Y61033967D02*
X-63566667Y61067300D01*
X-63566667Y61067300D02*
X-63633334Y61100634D01*
X-63633334Y61100634D02*
X-63733334Y61100634D01*
X-63733334Y61100634D02*
X-63800001Y61067300D01*
X-63800001Y61067300D02*
X-63833334Y61033967D01*
X-63833334Y61033967D02*
X-63866667Y60967300D01*
X-63866667Y60967300D02*
X-63866667Y60767300D01*
X-63866667Y60767300D02*
X-63833334Y60700634D01*
X-63833334Y60700634D02*
X-63800001Y60667300D01*
X-63800001Y60667300D02*
X-63733334Y60633967D01*
X-63733334Y60633967D02*
X-63633334Y60633967D01*
X-64166667Y61100634D02*
X-64166667Y60633967D01*
X-64166667Y61033967D02*
X-64200000Y61067300D01*
X-64200000Y61067300D02*
X-64266667Y61100634D01*
X-64266667Y61100634D02*
X-64366667Y61100634D01*
X-64366667Y61100634D02*
X-64433334Y61067300D01*
X-64433334Y61067300D02*
X-64466667Y61000634D01*
X-64466667Y61000634D02*
X-64466667Y60633967D01*
X-65233333Y61100634D02*
X-65500000Y61100634D01*
X-65333333Y61333967D02*
X-65333333Y60733967D01*
X-65333333Y60733967D02*
X-65366666Y60667300D01*
X-65366666Y60667300D02*
X-65433333Y60633967D01*
X-65433333Y60633967D02*
X-65500000Y60633967D01*
X-65733333Y60633967D02*
X-65733333Y61333967D01*
X-66033333Y60633967D02*
X-66033333Y61000634D01*
X-66033333Y61000634D02*
X-66000000Y61067300D01*
X-66000000Y61067300D02*
X-65933333Y61100634D01*
X-65933333Y61100634D02*
X-65833333Y61100634D01*
X-65833333Y61100634D02*
X-65766666Y61067300D01*
X-65766666Y61067300D02*
X-65733333Y61033967D01*
X-66366666Y60633967D02*
X-66366666Y61100634D01*
X-66366666Y61333967D02*
X-66333333Y61300634D01*
X-66333333Y61300634D02*
X-66366666Y61267300D01*
X-66366666Y61267300D02*
X-66399999Y61300634D01*
X-66399999Y61300634D02*
X-66366666Y61333967D01*
X-66366666Y61333967D02*
X-66366666Y61267300D01*
X-66666666Y60667300D02*
X-66733332Y60633967D01*
X-66733332Y60633967D02*
X-66866666Y60633967D01*
X-66866666Y60633967D02*
X-66933332Y60667300D01*
X-66933332Y60667300D02*
X-66966666Y60733967D01*
X-66966666Y60733967D02*
X-66966666Y60767300D01*
X-66966666Y60767300D02*
X-66933332Y60833967D01*
X-66933332Y60833967D02*
X-66866666Y60867300D01*
X-66866666Y60867300D02*
X-66766666Y60867300D01*
X-66766666Y60867300D02*
X-66699999Y60900634D01*
X-66699999Y60900634D02*
X-66666666Y60967300D01*
X-66666666Y60967300D02*
X-66666666Y61000634D01*
X-66666666Y61000634D02*
X-66699999Y61067300D01*
X-66699999Y61067300D02*
X-66766666Y61100634D01*
X-66766666Y61100634D02*
X-66866666Y61100634D01*
X-66866666Y61100634D02*
X-66933332Y61067300D01*
X-67766666Y60667300D02*
X-67833332Y60633967D01*
X-67833332Y60633967D02*
X-67966666Y60633967D01*
X-67966666Y60633967D02*
X-68033332Y60667300D01*
X-68033332Y60667300D02*
X-68066666Y60733967D01*
X-68066666Y60733967D02*
X-68066666Y60767300D01*
X-68066666Y60767300D02*
X-68033332Y60833967D01*
X-68033332Y60833967D02*
X-67966666Y60867300D01*
X-67966666Y60867300D02*
X-67866666Y60867300D01*
X-67866666Y60867300D02*
X-67799999Y60900634D01*
X-67799999Y60900634D02*
X-67766666Y60967300D01*
X-67766666Y60967300D02*
X-67766666Y61000634D01*
X-67766666Y61000634D02*
X-67799999Y61067300D01*
X-67799999Y61067300D02*
X-67866666Y61100634D01*
X-67866666Y61100634D02*
X-67966666Y61100634D01*
X-67966666Y61100634D02*
X-68033332Y61067300D01*
X-68366666Y60633967D02*
X-68366666Y61100634D01*
X-68366666Y61333967D02*
X-68333333Y61300634D01*
X-68333333Y61300634D02*
X-68366666Y61267300D01*
X-68366666Y61267300D02*
X-68399999Y61300634D01*
X-68399999Y61300634D02*
X-68366666Y61333967D01*
X-68366666Y61333967D02*
X-68366666Y61267300D01*
X-68999999Y60633967D02*
X-68999999Y61333967D01*
X-68999999Y60667300D02*
X-68933332Y60633967D01*
X-68933332Y60633967D02*
X-68799999Y60633967D01*
X-68799999Y60633967D02*
X-68733332Y60667300D01*
X-68733332Y60667300D02*
X-68699999Y60700634D01*
X-68699999Y60700634D02*
X-68666666Y60767300D01*
X-68666666Y60767300D02*
X-68666666Y60967300D01*
X-68666666Y60967300D02*
X-68699999Y61033967D01*
X-68699999Y61033967D02*
X-68733332Y61067300D01*
X-68733332Y61067300D02*
X-68799999Y61100634D01*
X-68799999Y61100634D02*
X-68933332Y61100634D01*
X-68933332Y61100634D02*
X-68999999Y61067300D01*
X-69599999Y60667300D02*
X-69533332Y60633967D01*
X-69533332Y60633967D02*
X-69399999Y60633967D01*
X-69399999Y60633967D02*
X-69333332Y60667300D01*
X-69333332Y60667300D02*
X-69299999Y60733967D01*
X-69299999Y60733967D02*
X-69299999Y61000634D01*
X-69299999Y61000634D02*
X-69333332Y61067300D01*
X-69333332Y61067300D02*
X-69399999Y61100634D01*
X-69399999Y61100634D02*
X-69533332Y61100634D01*
X-69533332Y61100634D02*
X-69599999Y61067300D01*
X-69599999Y61067300D02*
X-69633332Y61000634D01*
X-69633332Y61000634D02*
X-69633332Y60933967D01*
X-69633332Y60933967D02*
X-69299999Y60867300D01*
D12*
X-3390500Y8878572D02*
X-3361929Y8821429D01*
X-3361929Y8821429D02*
X-3361929Y8707143D01*
X-3361929Y8707143D02*
X-3390500Y8650000D01*
X-3390500Y8650000D02*
X-3447643Y8621429D01*
X-3447643Y8621429D02*
X-3476215Y8621429D01*
X-3476215Y8621429D02*
X-3533358Y8650000D01*
X-3533358Y8650000D02*
X-3561929Y8707143D01*
X-3561929Y8707143D02*
X-3561929Y8792857D01*
X-3561929Y8792857D02*
X-3590500Y8850000D01*
X-3590500Y8850000D02*
X-3647643Y8878572D01*
X-3647643Y8878572D02*
X-3676215Y8878572D01*
X-3676215Y8878572D02*
X-3733358Y8850000D01*
X-3733358Y8850000D02*
X-3761929Y8792857D01*
X-3761929Y8792857D02*
X-3761929Y8707143D01*
X-3761929Y8707143D02*
X-3733358Y8650000D01*
X-3361929Y8364286D02*
X-3961929Y8364286D01*
X-3361929Y8107143D02*
X-3676215Y8107143D01*
X-3676215Y8107143D02*
X-3733358Y8135715D01*
X-3733358Y8135715D02*
X-3761929Y8192858D01*
X-3761929Y8192858D02*
X-3761929Y8278572D01*
X-3761929Y8278572D02*
X-3733358Y8335715D01*
X-3733358Y8335715D02*
X-3704786Y8364286D01*
X-3361929Y7735715D02*
X-3390500Y7792858D01*
X-3390500Y7792858D02*
X-3419072Y7821429D01*
X-3419072Y7821429D02*
X-3476215Y7850001D01*
X-3476215Y7850001D02*
X-3647643Y7850001D01*
X-3647643Y7850001D02*
X-3704786Y7821429D01*
X-3704786Y7821429D02*
X-3733358Y7792858D01*
X-3733358Y7792858D02*
X-3761929Y7735715D01*
X-3761929Y7735715D02*
X-3761929Y7650001D01*
X-3761929Y7650001D02*
X-3733358Y7592858D01*
X-3733358Y7592858D02*
X-3704786Y7564286D01*
X-3704786Y7564286D02*
X-3647643Y7535715D01*
X-3647643Y7535715D02*
X-3476215Y7535715D01*
X-3476215Y7535715D02*
X-3419072Y7564286D01*
X-3419072Y7564286D02*
X-3390500Y7592858D01*
X-3390500Y7592858D02*
X-3361929Y7650001D01*
X-3361929Y7650001D02*
X-3361929Y7735715D01*
X-3361929Y7278572D02*
X-3761929Y7278572D01*
X-3647643Y7278572D02*
X-3704786Y7250001D01*
X-3704786Y7250001D02*
X-3733358Y7221429D01*
X-3733358Y7221429D02*
X-3761929Y7164287D01*
X-3761929Y7164287D02*
X-3761929Y7107144D01*
X-3761929Y6992858D02*
X-3761929Y6764286D01*
X-3961929Y6907143D02*
X-3447643Y6907143D01*
X-3447643Y6907143D02*
X-3390500Y6878572D01*
X-3390500Y6878572D02*
X-3361929Y6821429D01*
X-3361929Y6821429D02*
X-3361929Y6764286D01*
X-3676215Y6107143D02*
X-3676215Y5650000D01*
X-3504786Y5650000D02*
X-3504786Y6107143D01*
X-2395929Y9107142D02*
X-2710215Y9107142D01*
X-2710215Y9107142D02*
X-2767358Y9135714D01*
X-2767358Y9135714D02*
X-2795929Y9192857D01*
X-2795929Y9192857D02*
X-2795929Y9307142D01*
X-2795929Y9307142D02*
X-2767358Y9364285D01*
X-2424500Y9107142D02*
X-2395929Y9164285D01*
X-2395929Y9164285D02*
X-2395929Y9307142D01*
X-2395929Y9307142D02*
X-2424500Y9364285D01*
X-2424500Y9364285D02*
X-2481643Y9392857D01*
X-2481643Y9392857D02*
X-2538786Y9392857D01*
X-2538786Y9392857D02*
X-2595929Y9364285D01*
X-2595929Y9364285D02*
X-2624500Y9307142D01*
X-2624500Y9307142D02*
X-2624500Y9164285D01*
X-2624500Y9164285D02*
X-2653072Y9107142D01*
X-2395929Y8735714D02*
X-2424500Y8792857D01*
X-2424500Y8792857D02*
X-2481643Y8821428D01*
X-2481643Y8821428D02*
X-2995929Y8821428D01*
X-2795929Y8564285D02*
X-2395929Y8449999D01*
X-2395929Y8449999D02*
X-2681643Y8335714D01*
X-2681643Y8335714D02*
X-2395929Y8221428D01*
X-2395929Y8221428D02*
X-2795929Y8107142D01*
X-2395929Y7621428D02*
X-2710215Y7621428D01*
X-2710215Y7621428D02*
X-2767358Y7650000D01*
X-2767358Y7650000D02*
X-2795929Y7707143D01*
X-2795929Y7707143D02*
X-2795929Y7821428D01*
X-2795929Y7821428D02*
X-2767358Y7878571D01*
X-2424500Y7621428D02*
X-2395929Y7678571D01*
X-2395929Y7678571D02*
X-2395929Y7821428D01*
X-2395929Y7821428D02*
X-2424500Y7878571D01*
X-2424500Y7878571D02*
X-2481643Y7907143D01*
X-2481643Y7907143D02*
X-2538786Y7907143D01*
X-2538786Y7907143D02*
X-2595929Y7878571D01*
X-2595929Y7878571D02*
X-2624500Y7821428D01*
X-2624500Y7821428D02*
X-2624500Y7678571D01*
X-2624500Y7678571D02*
X-2653072Y7621428D01*
X-2795929Y7392857D02*
X-2395929Y7250000D01*
X-2795929Y7107143D02*
X-2395929Y7250000D01*
X-2395929Y7250000D02*
X-2253072Y7307143D01*
X-2253072Y7307143D02*
X-2224500Y7335714D01*
X-2224500Y7335714D02*
X-2195929Y7392857D01*
X-2424500Y6907143D02*
X-2395929Y6850000D01*
X-2395929Y6850000D02*
X-2395929Y6735714D01*
X-2395929Y6735714D02*
X-2424500Y6678571D01*
X-2424500Y6678571D02*
X-2481643Y6650000D01*
X-2481643Y6650000D02*
X-2510215Y6650000D01*
X-2510215Y6650000D02*
X-2567358Y6678571D01*
X-2567358Y6678571D02*
X-2595929Y6735714D01*
X-2595929Y6735714D02*
X-2595929Y6821428D01*
X-2595929Y6821428D02*
X-2624500Y6878571D01*
X-2624500Y6878571D02*
X-2681643Y6907143D01*
X-2681643Y6907143D02*
X-2710215Y6907143D01*
X-2710215Y6907143D02*
X-2767358Y6878571D01*
X-2767358Y6878571D02*
X-2795929Y6821428D01*
X-2795929Y6821428D02*
X-2795929Y6735714D01*
X-2795929Y6735714D02*
X-2767358Y6678571D01*
X-2395929Y5850000D02*
X-2424500Y5907143D01*
X-2424500Y5907143D02*
X-2453072Y5935714D01*
X-2453072Y5935714D02*
X-2510215Y5964286D01*
X-2510215Y5964286D02*
X-2681643Y5964286D01*
X-2681643Y5964286D02*
X-2738786Y5935714D01*
X-2738786Y5935714D02*
X-2767358Y5907143D01*
X-2767358Y5907143D02*
X-2795929Y5850000D01*
X-2795929Y5850000D02*
X-2795929Y5764286D01*
X-2795929Y5764286D02*
X-2767358Y5707143D01*
X-2767358Y5707143D02*
X-2738786Y5678571D01*
X-2738786Y5678571D02*
X-2681643Y5650000D01*
X-2681643Y5650000D02*
X-2510215Y5650000D01*
X-2510215Y5650000D02*
X-2453072Y5678571D01*
X-2453072Y5678571D02*
X-2424500Y5707143D01*
X-2424500Y5707143D02*
X-2395929Y5764286D01*
X-2395929Y5764286D02*
X-2395929Y5850000D01*
X-2795929Y5392857D02*
X-2395929Y5392857D01*
X-2738786Y5392857D02*
X-2767358Y5364286D01*
X-2767358Y5364286D02*
X-2795929Y5307143D01*
X-2795929Y5307143D02*
X-2795929Y5221429D01*
X-2795929Y5221429D02*
X-2767358Y5164286D01*
X-2767358Y5164286D02*
X-2710215Y5135714D01*
X-2710215Y5135714D02*
X-2395929Y5135714D01*
D11*
X-15119049Y50626134D02*
X-15880953Y50626134D01*
X-15500001Y50245181D02*
X-15500001Y51007086D01*
X-16357144Y50245181D02*
X-16357144Y51245181D01*
X-16357144Y51245181D02*
X-16738096Y51245181D01*
X-16738096Y51245181D02*
X-16833334Y51197562D01*
X-16833334Y51197562D02*
X-16880953Y51149943D01*
X-16880953Y51149943D02*
X-16928572Y51054705D01*
X-16928572Y51054705D02*
X-16928572Y50911848D01*
X-16928572Y50911848D02*
X-16880953Y50816610D01*
X-16880953Y50816610D02*
X-16833334Y50768991D01*
X-16833334Y50768991D02*
X-16738096Y50721372D01*
X-16738096Y50721372D02*
X-16357144Y50721372D01*
X-17547620Y51245181D02*
X-17738096Y51245181D01*
X-17738096Y51245181D02*
X-17833334Y51197562D01*
X-17833334Y51197562D02*
X-17928572Y51102324D01*
X-17928572Y51102324D02*
X-17976191Y50911848D01*
X-17976191Y50911848D02*
X-17976191Y50578515D01*
X-17976191Y50578515D02*
X-17928572Y50388039D01*
X-17928572Y50388039D02*
X-17833334Y50292800D01*
X-17833334Y50292800D02*
X-17738096Y50245181D01*
X-17738096Y50245181D02*
X-17547620Y50245181D01*
X-17547620Y50245181D02*
X-17452382Y50292800D01*
X-17452382Y50292800D02*
X-17357144Y50388039D01*
X-17357144Y50388039D02*
X-17309525Y50578515D01*
X-17309525Y50578515D02*
X-17309525Y50911848D01*
X-17309525Y50911848D02*
X-17357144Y51102324D01*
X-17357144Y51102324D02*
X-17452382Y51197562D01*
X-17452382Y51197562D02*
X-17547620Y51245181D01*
X-18357144Y50292800D02*
X-18500001Y50245181D01*
X-18500001Y50245181D02*
X-18738096Y50245181D01*
X-18738096Y50245181D02*
X-18833334Y50292800D01*
X-18833334Y50292800D02*
X-18880953Y50340420D01*
X-18880953Y50340420D02*
X-18928572Y50435658D01*
X-18928572Y50435658D02*
X-18928572Y50530896D01*
X-18928572Y50530896D02*
X-18880953Y50626134D01*
X-18880953Y50626134D02*
X-18833334Y50673753D01*
X-18833334Y50673753D02*
X-18738096Y50721372D01*
X-18738096Y50721372D02*
X-18547620Y50768991D01*
X-18547620Y50768991D02*
X-18452382Y50816610D01*
X-18452382Y50816610D02*
X-18404763Y50864229D01*
X-18404763Y50864229D02*
X-18357144Y50959467D01*
X-18357144Y50959467D02*
X-18357144Y51054705D01*
X-18357144Y51054705D02*
X-18404763Y51149943D01*
X-18404763Y51149943D02*
X-18452382Y51197562D01*
X-18452382Y51197562D02*
X-18547620Y51245181D01*
X-18547620Y51245181D02*
X-18785715Y51245181D01*
X-18785715Y51245181D02*
X-18928572Y51197562D01*
D13*
%TO.C,SW2*%
X-3800000Y9650000D02*
X-1800000Y9650000D01*
X-1800000Y9650000D02*
X-1800000Y12450000D01*
X-3800000Y12450000D02*
X-3800000Y9650000D01*
X-1800000Y12450000D02*
X-3800000Y12450000D01*
%TO.C,Q11*%
X-33210000Y5800000D02*
X-43090000Y5800000D01*
X-43090000Y5800000D02*
X-43090000Y12290000D01*
X-43090000Y12290000D02*
X-33210000Y12290000D01*
X-33210000Y12290000D02*
X-33210000Y5800000D01*
X-33210000Y12290000D02*
X-43090000Y12290000D01*
X-43090000Y12290000D02*
X-43090000Y21170000D01*
X-43090000Y21170000D02*
X-33210000Y21170000D01*
X-33210000Y21170000D02*
X-33210000Y12290000D01*
%TO.C,Q5*%
X-63942500Y5799958D02*
X-73822500Y5799958D01*
X-73822500Y5799958D02*
X-73822500Y12289958D01*
X-73822500Y12289958D02*
X-63942500Y12289958D01*
X-63942500Y12289958D02*
X-63942500Y5799958D01*
X-63942500Y12289958D02*
X-73822500Y12289958D01*
X-73822500Y12289958D02*
X-73822500Y21169958D01*
X-73822500Y21169958D02*
X-63942500Y21169958D01*
X-63942500Y21169958D02*
X-63942500Y12289958D01*
%TO.C,Q12*%
X-32290000Y50040000D02*
X-22410000Y50040000D01*
X-22410000Y50040000D02*
X-22410000Y43550000D01*
X-22410000Y43550000D02*
X-32290000Y43550000D01*
X-32290000Y43550000D02*
X-32290000Y50040000D01*
X-32290000Y43550000D02*
X-22410000Y43550000D01*
X-22410000Y43550000D02*
X-22410000Y34670000D01*
X-22410000Y34670000D02*
X-32290000Y34670000D01*
X-32290000Y34670000D02*
X-32290000Y43550000D01*
%TO.C,P11*%
X-35906429Y-34725000D02*
X-38566429Y-34725000D01*
X-35906429Y-24505000D02*
X-35906429Y-34725000D01*
X-35906429Y-24505000D02*
X-38566429Y-24505000D01*
X-35906429Y-23235000D02*
X-35906429Y-21905000D01*
X-35906429Y-21905000D02*
X-37236429Y-21905000D01*
X-38566429Y-24505000D02*
X-38566429Y-34725000D01*
%TO.C,Q9*%
X-43260000Y5800000D02*
X-53140000Y5800000D01*
X-53140000Y5800000D02*
X-53140000Y12290000D01*
X-53140000Y12290000D02*
X-43260000Y12290000D01*
X-43260000Y12290000D02*
X-43260000Y5800000D01*
X-43260000Y12290000D02*
X-53140000Y12290000D01*
X-53140000Y12290000D02*
X-53140000Y21170000D01*
X-53140000Y21170000D02*
X-43260000Y21170000D01*
X-43260000Y21170000D02*
X-43260000Y12290000D01*
%TO.C,U12*%
X-76397500Y1865000D02*
X-25597500Y1865000D01*
X-25597500Y1865000D02*
X-25597500Y-675000D01*
X-25597500Y-675000D02*
X-76397500Y-675000D01*
X-76397500Y-675000D02*
X-76397500Y1865000D01*
X-76397500Y1865000D02*
X-73857500Y1865000D01*
X-73857500Y1865000D02*
X-73857500Y-675000D01*
X-73857500Y-675000D02*
X-76397500Y-675000D01*
X-76397500Y-675000D02*
X-76397500Y1865000D01*
X-76397500Y-13375000D02*
X-25597500Y-13375000D01*
X-25597500Y-13375000D02*
X-25597500Y-15915000D01*
X-25597500Y-15915000D02*
X-76397500Y-15915000D01*
X-76397500Y-15915000D02*
X-76397500Y-13375000D01*
X-76397500Y-13375000D02*
X-73857500Y-13375000D01*
X-73857500Y-13375000D02*
X-73857500Y-15915000D01*
X-73857500Y-15915000D02*
X-76397500Y-15915000D01*
X-76397500Y-15915000D02*
X-76397500Y-13375000D01*
%TO.C,Q14*%
X-22240000Y50040000D02*
X-12360000Y50040000D01*
X-12360000Y50040000D02*
X-12360000Y43550000D01*
X-12360000Y43550000D02*
X-22240000Y43550000D01*
X-22240000Y43550000D02*
X-22240000Y50040000D01*
X-22240000Y43550000D02*
X-12360000Y43550000D01*
X-12360000Y43550000D02*
X-12360000Y34670000D01*
X-12360000Y34670000D02*
X-22240000Y34670000D01*
X-22240000Y34670000D02*
X-22240000Y43550000D01*
%TO.C,Q4*%
X-73860000Y50040000D02*
X-63980000Y50040000D01*
X-63980000Y50040000D02*
X-63980000Y43550000D01*
X-63980000Y43550000D02*
X-73860000Y43550000D01*
X-73860000Y43550000D02*
X-73860000Y50040000D01*
X-73860000Y43550000D02*
X-63980000Y43550000D01*
X-63980000Y43550000D02*
X-63980000Y34670000D01*
X-63980000Y34670000D02*
X-73860000Y34670000D01*
X-73860000Y34670000D02*
X-73860000Y43550000D01*
%TO.C,J4*%
X-4379999Y5090000D02*
X-5629999Y5090000D01*
X-9399999Y5390000D02*
X-9399999Y15510000D01*
X-7289999Y5390000D02*
X-7289999Y6000000D01*
X-5989999Y5390000D02*
X-5989999Y6000000D01*
X-4679999Y5390000D02*
X-9399999Y5390000D01*
X-8789999Y6000000D02*
X-8789999Y14900000D01*
X-5289999Y6000000D02*
X-8789999Y6000000D01*
X-4379999Y6340000D02*
X-4379999Y5090000D01*
X-4479999Y6850000D02*
X-4679999Y6850000D01*
X-4679999Y7150000D02*
X-4479999Y7150000D01*
X-4579999Y7150000D02*
X-4579999Y6850000D01*
X-4479999Y7150000D02*
X-4479999Y6850000D01*
X-5289999Y7950000D02*
X-5289999Y6000000D01*
X-4679999Y7950000D02*
X-5289999Y7950000D01*
X-8789999Y8350000D02*
X-8289999Y8350000D01*
X-8289999Y8350000D02*
X-8289999Y8550000D01*
X-8789999Y8450000D02*
X-8289999Y8450000D01*
X-8289999Y8550000D02*
X-8789999Y8550000D01*
X-8789999Y10350000D02*
X-8289999Y10350000D01*
X-8289999Y10350000D02*
X-8289999Y10550000D01*
X-8789999Y10450000D02*
X-8289999Y10450000D01*
X-8289999Y10550000D02*
X-8789999Y10550000D01*
X-8789999Y12350000D02*
X-8289999Y12350000D01*
X-8289999Y12350000D02*
X-8289999Y12550000D01*
X-8789999Y12450000D02*
X-8289999Y12450000D01*
X-8289999Y12550000D02*
X-8789999Y12550000D01*
X-5289999Y12950000D02*
X-4679999Y12950000D01*
X-8789999Y14900000D02*
X-5289999Y14900000D01*
X-5289999Y14900000D02*
X-5289999Y12950000D01*
X-9399999Y15510000D02*
X-4679999Y15510000D01*
X-7289999Y15510000D02*
X-7289999Y14900000D01*
X-5989999Y15510000D02*
X-5989999Y14900000D01*
X-4679999Y15510000D02*
X-4679999Y5390000D01*
%TO.C,Q15*%
X-12360000Y5800000D02*
X-22240000Y5800000D01*
X-22240000Y5800000D02*
X-22240000Y12290000D01*
X-22240000Y12290000D02*
X-12360000Y12290000D01*
X-12360000Y12290000D02*
X-12360000Y5800000D01*
X-12360000Y12290000D02*
X-22240000Y12290000D01*
X-22240000Y12290000D02*
X-22240000Y21170000D01*
X-22240000Y21170000D02*
X-12360000Y21170000D01*
X-12360000Y21170000D02*
X-12360000Y12290000D01*
%TO.C,Q7*%
X-53860000Y5800000D02*
X-63740000Y5800000D01*
X-63740000Y5800000D02*
X-63740000Y12290000D01*
X-63740000Y12290000D02*
X-53860000Y12290000D01*
X-53860000Y12290000D02*
X-53860000Y5800000D01*
X-53860000Y12290000D02*
X-63740000Y12290000D01*
X-63740000Y12290000D02*
X-63740000Y21170000D01*
X-63740000Y21170000D02*
X-53860000Y21170000D01*
X-53860000Y21170000D02*
X-53860000Y12290000D01*
%TO.C,Q13*%
X-22410000Y5800000D02*
X-32290000Y5800000D01*
X-32290000Y5800000D02*
X-32290000Y12290000D01*
X-32290000Y12290000D02*
X-22410000Y12290000D01*
X-22410000Y12290000D02*
X-22410000Y5800000D01*
X-22410000Y12290000D02*
X-32290000Y12290000D01*
X-32290000Y12290000D02*
X-32290000Y21170000D01*
X-32290000Y21170000D02*
X-22410000Y21170000D01*
X-22410000Y21170000D02*
X-22410000Y12290000D01*
%TO.C,Q10*%
X-43090000Y50040000D02*
X-33210000Y50040000D01*
X-33210000Y50040000D02*
X-33210000Y43550000D01*
X-33210000Y43550000D02*
X-43090000Y43550000D01*
X-43090000Y43550000D02*
X-43090000Y50040000D01*
X-43090000Y43550000D02*
X-33210000Y43550000D01*
X-33210000Y43550000D02*
X-33210000Y34670000D01*
X-33210000Y34670000D02*
X-43090000Y34670000D01*
X-43090000Y34670000D02*
X-43090000Y43550000D01*
%TO.C,Q8*%
X-53160000Y50040000D02*
X-43280000Y50040000D01*
X-43280000Y50040000D02*
X-43280000Y43550000D01*
X-43280000Y43550000D02*
X-53160000Y43550000D01*
X-53160000Y43550000D02*
X-53160000Y50040000D01*
X-53160000Y43550000D02*
X-43280000Y43550000D01*
X-43280000Y43550000D02*
X-43280000Y34670000D01*
X-43280000Y34670000D02*
X-53160000Y34670000D01*
X-53160000Y34670000D02*
X-53160000Y43550000D01*
%TO.C,Q6*%
X-63777500Y50090000D02*
X-53897500Y50090000D01*
X-53897500Y50090000D02*
X-53897500Y43600000D01*
X-53897500Y43600000D02*
X-63777500Y43600000D01*
X-63777500Y43600000D02*
X-63777500Y50090000D01*
X-63777500Y43600000D02*
X-53897500Y43600000D01*
X-53897500Y43600000D02*
X-53897500Y34720000D01*
X-53897500Y34720000D02*
X-63777500Y34720000D01*
X-63777500Y34720000D02*
X-63777500Y43600000D01*
%TO.C,U12*%
X-75877500Y-19330000D02*
X-25077500Y-19330000D01*
X-25077500Y-19330000D02*
X-25077500Y-21870000D01*
X-25077500Y-21870000D02*
X-75877500Y-21870000D01*
X-75877500Y-21870000D02*
X-75877500Y-19330000D01*
X-75877500Y-19330000D02*
X-73337500Y-19330000D01*
X-73337500Y-19330000D02*
X-73337500Y-21870000D01*
X-73337500Y-21870000D02*
X-75877500Y-21870000D01*
X-75877500Y-21870000D02*
X-75877500Y-19330000D01*
X-75877500Y-34570000D02*
X-25077500Y-34570000D01*
X-25077500Y-34570000D02*
X-25077500Y-37110000D01*
X-25077500Y-37110000D02*
X-75877500Y-37110000D01*
X-75877500Y-37110000D02*
X-75877500Y-34570000D01*
X-75877500Y-34570000D02*
X-73337500Y-34570000D01*
X-73337500Y-34570000D02*
X-73337500Y-37110000D01*
X-73337500Y-37110000D02*
X-75877500Y-37110000D01*
X-75877500Y-37110000D02*
X-75877500Y-34570000D01*
%TD*%
M02*
