%TF.GenerationSoftware,KiCad,Pcbnew,7.0.10*%
%TF.CreationDate,2024-07-31T12:40:02+02:00*%
%TF.ProjectId,foc,666f632e-6b69-4636-9164-5f7063625858,rev?*%
%TF.SameCoordinates,PXc0145d0PY6b671e0*%
%TF.FileFunction,Soldermask,Top*%
%TF.FilePolarity,Negative*%
%FSLAX46Y46*%
G04 Gerber Fmt 4.6, Leading zero omitted, Abs format (unit mm)*
G04 Created by KiCad (PCBNEW 7.0.10) date 2024-07-31 12:40:02*
%MOMM*%
%LPD*%
G01*
G04 APERTURE LIST*
G04 Aperture macros list*
%AMRoundRect*
0 Rectangle with rounded corners*
0 $1 Rounding radius*
0 $2 $3 $4 $5 $6 $7 $8 $9 X,Y pos of 4 corners*
0 Add a 4 corners polygon primitive as box body*
4,1,4,$2,$3,$4,$5,$6,$7,$8,$9,$2,$3,0*
0 Add four circle primitives for the rounded corners*
1,1,$1+$1,$2,$3*
1,1,$1+$1,$4,$5*
1,1,$1+$1,$6,$7*
1,1,$1+$1,$8,$9*
0 Add four rect primitives between the rounded corners*
20,1,$1+$1,$2,$3,$4,$5,0*
20,1,$1+$1,$4,$5,$6,$7,0*
20,1,$1+$1,$6,$7,$8,$9,0*
20,1,$1+$1,$8,$9,$2,$3,0*%
G04 Aperture macros list end*
%ADD10C,0.150000*%
%ADD11RoundRect,0.200000X0.275000X-0.200000X0.275000X0.200000X-0.275000X0.200000X-0.275000X-0.200000X0*%
%ADD12RoundRect,0.225000X0.250000X-0.225000X0.250000X0.225000X-0.250000X0.225000X-0.250000X-0.225000X0*%
%ADD13R,1.800000X2.500000*%
%ADD14RoundRect,0.225000X-0.250000X0.225000X-0.250000X-0.225000X0.250000X-0.225000X0.250000X0.225000X0*%
%ADD15RoundRect,0.225000X0.225000X0.250000X-0.225000X0.250000X-0.225000X-0.250000X0.225000X-0.250000X0*%
%ADD16R,1.700000X1.700000*%
%ADD17RoundRect,0.250000X1.425000X-0.362500X1.425000X0.362500X-1.425000X0.362500X-1.425000X-0.362500X0*%
%ADD18RoundRect,0.250000X0.450000X0.425000X-0.450000X0.425000X-0.450000X-0.425000X0.450000X-0.425000X0*%
%ADD19RoundRect,0.225000X-0.225000X-0.250000X0.225000X-0.250000X0.225000X0.250000X-0.225000X0.250000X0*%
%ADD20C,3.200000*%
%ADD21RoundRect,0.250000X1.100000X-0.325000X1.100000X0.325000X-1.100000X0.325000X-1.100000X-0.325000X0*%
%ADD22R,2.000000X1.500000*%
%ADD23R,2.000000X3.800000*%
%ADD24RoundRect,0.200000X-0.200000X-0.275000X0.200000X-0.275000X0.200000X0.275000X-0.200000X0.275000X0*%
%ADD25RoundRect,0.200000X-0.275000X0.200000X-0.275000X-0.200000X0.275000X-0.200000X0.275000X0.200000X0*%
%ADD26R,1.000000X1.500000*%
%ADD27RoundRect,0.250000X-0.625000X0.350000X-0.625000X-0.350000X0.625000X-0.350000X0.625000X0.350000X0*%
%ADD28O,1.750000X1.200000*%
%ADD29C,1.700000*%
%ADD30RoundRect,0.150000X0.150000X-0.825000X0.150000X0.825000X-0.150000X0.825000X-0.150000X-0.825000X0*%
%ADD31RoundRect,0.200000X0.200000X0.275000X-0.200000X0.275000X-0.200000X-0.275000X0.200000X-0.275000X0*%
%ADD32RoundRect,0.150000X-0.675000X-0.150000X0.675000X-0.150000X0.675000X0.150000X-0.675000X0.150000X0*%
%ADD33RoundRect,0.075000X-0.125000X-0.075000X0.125000X-0.075000X0.125000X0.075000X-0.125000X0.075000X0*%
%ADD34C,0.700000*%
%ADD35R,1.450000X0.600000*%
%ADD36R,1.450000X0.300000*%
%ADD37O,2.100000X1.050000*%
%ADD38RoundRect,0.250000X0.450000X-0.262500X0.450000X0.262500X-0.450000X0.262500X-0.450000X-0.262500X0*%
%ADD39RoundRect,0.150000X-0.150000X0.587500X-0.150000X-0.587500X0.150000X-0.587500X0.150000X0.587500X0*%
%ADD40RoundRect,0.250000X0.325000X0.650000X-0.325000X0.650000X-0.325000X-0.650000X0.325000X-0.650000X0*%
%ADD41RoundRect,0.150000X0.150000X-0.512500X0.150000X0.512500X-0.150000X0.512500X-0.150000X-0.512500X0*%
%ADD42RoundRect,0.250000X-0.250000X-0.475000X0.250000X-0.475000X0.250000X0.475000X-0.250000X0.475000X0*%
%ADD43RoundRect,0.250000X-0.450000X-0.425000X0.450000X-0.425000X0.450000X0.425000X-0.450000X0.425000X0*%
%ADD44R,2.400000X2.000000*%
%ADD45RoundRect,0.053000X-0.369000X-0.159000X0.369000X-0.159000X0.369000X0.159000X-0.369000X0.159000X0*%
%ADD46RoundRect,0.053000X-0.159000X-0.369000X0.159000X-0.369000X0.159000X0.369000X-0.159000X0.369000X0*%
%ADD47R,0.450000X0.600000*%
%ADD48R,0.900000X1.200000*%
%ADD49RoundRect,0.075000X0.075000X-0.700000X0.075000X0.700000X-0.075000X0.700000X-0.075000X-0.700000X0*%
%ADD50RoundRect,0.075000X0.700000X-0.075000X0.700000X0.075000X-0.700000X0.075000X-0.700000X-0.075000X0*%
%ADD51RoundRect,0.150000X0.150000X-0.587500X0.150000X0.587500X-0.150000X0.587500X-0.150000X-0.587500X0*%
%ADD52R,2.200000X3.300000*%
%ADD53RoundRect,0.243750X-0.243750X-0.456250X0.243750X-0.456250X0.243750X0.456250X-0.243750X0.456250X0*%
%ADD54RoundRect,0.218750X-0.256250X0.218750X-0.256250X-0.218750X0.256250X-0.218750X0.256250X0.218750X0*%
%ADD55RoundRect,0.250000X0.250000X0.475000X-0.250000X0.475000X-0.250000X-0.475000X0.250000X-0.475000X0*%
%ADD56R,1.200000X0.500000*%
%ADD57R,2.540000X3.810000*%
%ADD58RoundRect,0.250000X0.412500X0.925000X-0.412500X0.925000X-0.412500X-0.925000X0.412500X-0.925000X0*%
%ADD59RoundRect,0.075000X-0.075000X0.125000X-0.075000X-0.125000X0.075000X-0.125000X0.075000X0.125000X0*%
%ADD60RoundRect,0.250000X0.625000X-0.312500X0.625000X0.312500X-0.625000X0.312500X-0.625000X-0.312500X0*%
%ADD61RoundRect,0.218750X0.218750X0.256250X-0.218750X0.256250X-0.218750X-0.256250X0.218750X-0.256250X0*%
%ADD62RoundRect,0.250000X0.325000X1.100000X-0.325000X1.100000X-0.325000X-1.100000X0.325000X-1.100000X0*%
%ADD63R,2.500000X1.800000*%
%ADD64R,1.905000X2.000000*%
%ADD65O,1.905000X2.000000*%
%ADD66O,1.700000X1.700000*%
%ADD67C,4.800000*%
%ADD68RoundRect,0.250000X0.625000X-0.350000X0.625000X0.350000X-0.625000X0.350000X-0.625000X-0.350000X0*%
G04 APERTURE END LIST*
D10*
X-70471428Y-6786128D02*
X-70471428Y-7143271D01*
X-70780952Y-7000414D02*
X-70471428Y-7143271D01*
X-70471428Y-7143271D02*
X-70161905Y-7000414D01*
X-70657143Y-7428985D02*
X-70471428Y-7143271D01*
X-70471428Y-7143271D02*
X-70285714Y-7428985D01*
X-69480952Y-6786128D02*
X-69480952Y-7143271D01*
X-69790476Y-7000414D02*
X-69480952Y-7143271D01*
X-69480952Y-7143271D02*
X-69171429Y-7000414D01*
X-69666667Y-7428985D02*
X-69480952Y-7143271D01*
X-69480952Y-7143271D02*
X-69295238Y-7428985D01*
X-68490476Y-6786128D02*
X-68490476Y-7143271D01*
X-68800000Y-7000414D02*
X-68490476Y-7143271D01*
X-68490476Y-7143271D02*
X-68180953Y-7000414D01*
X-68676191Y-7428985D02*
X-68490476Y-7143271D01*
X-68490476Y-7143271D02*
X-68304762Y-7428985D01*
X-67500000Y-6786128D02*
X-67500000Y-7143271D01*
X-67809524Y-7000414D02*
X-67500000Y-7143271D01*
X-67500000Y-7143271D02*
X-67190477Y-7000414D01*
X-67685715Y-7428985D02*
X-67500000Y-7143271D01*
X-67500000Y-7143271D02*
X-67314286Y-7428985D01*
X-66509524Y-6786128D02*
X-66509524Y-7143271D01*
X-66819048Y-7000414D02*
X-66509524Y-7143271D01*
X-66509524Y-7143271D02*
X-66200001Y-7000414D01*
X-66695239Y-7428985D02*
X-66509524Y-7143271D01*
X-66509524Y-7143271D02*
X-66323810Y-7428985D01*
X-65519048Y-6786128D02*
X-65519048Y-7143271D01*
X-65828572Y-7000414D02*
X-65519048Y-7143271D01*
X-65519048Y-7143271D02*
X-65209525Y-7000414D01*
X-65704763Y-7428985D02*
X-65519048Y-7143271D01*
X-65519048Y-7143271D02*
X-65333334Y-7428985D01*
X-64528572Y-6786128D02*
X-64528572Y-7143271D01*
X-64838096Y-7000414D02*
X-64528572Y-7143271D01*
X-64528572Y-7143271D02*
X-64219049Y-7000414D01*
X-64714287Y-7428985D02*
X-64528572Y-7143271D01*
X-64528572Y-7143271D02*
X-64342858Y-7428985D01*
D11*
%TO.C,R18*%
X-27400000Y17625000D03*
X-27400000Y19275000D03*
%TD*%
D12*
%TO.C,C71*%
X-61286429Y-27635000D03*
X-61286429Y-26085000D03*
%TD*%
D13*
%TO.C,D2*%
X-65302500Y17069958D03*
X-65302500Y13069958D03*
%TD*%
D14*
%TO.C,C53*%
X-42935000Y-7230000D03*
X-42935000Y-8780000D03*
%TD*%
D15*
%TO.C,C25*%
X-25535000Y14320000D03*
X-27085000Y14320000D03*
%TD*%
D16*
%TO.C,P6*%
X-9900000Y46220000D03*
%TD*%
D17*
%TO.C,R80*%
X-32751836Y29463879D03*
X-32751836Y35388879D03*
%TD*%
D18*
%TO.C,C9*%
X-67260000Y12520000D03*
X-69960000Y12520000D03*
%TD*%
D11*
%TO.C,R6*%
X-43736429Y-28260000D03*
X-43736429Y-26610000D03*
%TD*%
D19*
%TO.C,C68*%
X-46011429Y-31760000D03*
X-44461429Y-31760000D03*
%TD*%
D20*
%TO.C,H10*%
X-38127500Y9000042D03*
%TD*%
D12*
%TO.C,C60*%
X-20060000Y34545000D03*
X-20060000Y36095000D03*
%TD*%
D21*
%TO.C,C46*%
X-48020000Y37805000D03*
X-48020000Y40755000D03*
%TD*%
D12*
%TO.C,C1*%
X-23222151Y-9765420D03*
X-23222151Y-8215420D03*
%TD*%
D22*
%TO.C,U3*%
X-34586429Y-28660000D03*
X-34586429Y-30960000D03*
D23*
X-28286429Y-30960000D03*
D22*
X-34586429Y-33260000D03*
%TD*%
D15*
%TO.C,C29*%
X-8514999Y40075000D03*
X-10064999Y40075000D03*
%TD*%
D17*
%TO.C,R62*%
X-53510000Y29463879D03*
X-53510000Y35388879D03*
%TD*%
D12*
%TO.C,C22*%
X-42930000Y-11875000D03*
X-42930000Y-10325000D03*
%TD*%
D20*
%TO.C,H3*%
X-48242500Y46700000D03*
%TD*%
D15*
%TO.C,C45*%
X-59765000Y-11500000D03*
X-61315000Y-11500000D03*
%TD*%
D24*
%TO.C,R28*%
X-73735000Y21050000D03*
X-72085000Y21050000D03*
%TD*%
D25*
%TO.C,R65*%
X-36947500Y36145000D03*
X-36947500Y34495000D03*
%TD*%
D16*
%TO.C,P8*%
X-9900000Y-16050000D03*
%TD*%
D25*
%TO.C,R69*%
X-29620000Y36205000D03*
X-29620000Y34555000D03*
%TD*%
D26*
%TO.C,SW1*%
X-24900000Y-4500000D03*
X-26200000Y-4500000D03*
X-27500000Y-4500000D03*
%TD*%
D11*
%TO.C,R9*%
X-4889999Y9725000D03*
X-4889999Y11375000D03*
%TD*%
D25*
%TO.C,R51*%
X-50480000Y36170000D03*
X-50480000Y34520000D03*
%TD*%
D27*
%TO.C,J1*%
X-14060000Y-13020000D03*
D28*
X-14060000Y-15020000D03*
%TD*%
D14*
%TO.C,C69*%
X-62436429Y-32585000D03*
X-62436429Y-34135000D03*
%TD*%
D25*
%TO.C,R55*%
X-45985000Y-3980000D03*
X-45985000Y-5630000D03*
%TD*%
D11*
%TO.C,R16*%
X-49150000Y17375000D03*
X-49150000Y19025000D03*
%TD*%
D21*
%TO.C,C57*%
X-20850000Y37785000D03*
X-20850000Y40735000D03*
%TD*%
D19*
%TO.C,C70*%
X-46011429Y-34200000D03*
X-44461429Y-34200000D03*
%TD*%
D21*
%TO.C,C37*%
X-65600000Y37800000D03*
X-65600000Y40750000D03*
%TD*%
D12*
%TO.C,C43*%
X-48985000Y-8780000D03*
X-48985000Y-7230000D03*
%TD*%
D29*
%TO.C,*%
X-46667500Y-35840000D03*
%TD*%
D24*
%TO.C,R13*%
X-10139999Y14550000D03*
X-8489999Y14550000D03*
%TD*%
D30*
%TO.C,U7*%
X-21452500Y12795000D03*
X-20182500Y12795000D03*
X-18912500Y12795000D03*
X-17642500Y12795000D03*
X-17642500Y17745000D03*
X-18912500Y17745000D03*
X-20182500Y17745000D03*
X-21452500Y17745000D03*
%TD*%
D31*
%TO.C,R8*%
X-2764999Y17800000D03*
X-4414999Y17800000D03*
%TD*%
D18*
%TO.C,C24*%
X-25760000Y12520000D03*
X-28460000Y12520000D03*
%TD*%
D27*
%TO.C,J2*%
X-14050000Y1220000D03*
D28*
X-14050000Y-780000D03*
X-14050000Y-2780000D03*
X-14050000Y-4780000D03*
X-14050000Y-6780000D03*
X-14050000Y-8780000D03*
%TD*%
D32*
%TO.C,U5*%
X-8314999Y-3795000D03*
X-8314999Y-5065000D03*
X-8314999Y-6335000D03*
X-8314999Y-7605000D03*
X-3064999Y-7605000D03*
X-3064999Y-6335000D03*
X-3064999Y-5065000D03*
X-3064999Y-3795000D03*
%TD*%
D15*
%TO.C,C11*%
X-67035000Y14320000D03*
X-68585000Y14320000D03*
%TD*%
D29*
%TO.C,*%
X-74607500Y-35840000D03*
%TD*%
D33*
%TO.C, R4k*%
X-39140000Y-33400000D03*
X-38640000Y-33400000D03*
%TD*%
D24*
%TO.C,R24*%
X-7614999Y40075000D03*
X-5964999Y40075000D03*
%TD*%
D25*
%TO.C,R3*%
X-20700002Y-3700002D03*
X-20700002Y-5350002D03*
%TD*%
%TO.C,R30*%
X-50635000Y-6855000D03*
X-50635000Y-8505000D03*
%TD*%
D30*
%TO.C,U6*%
X-42295000Y12795000D03*
X-41025000Y12795000D03*
X-39755000Y12795000D03*
X-38485000Y12795000D03*
X-38485000Y17745000D03*
X-39755000Y17745000D03*
X-41025000Y17745000D03*
X-42295000Y17745000D03*
%TD*%
D11*
%TO.C,R36*%
X-68260000Y34495000D03*
X-68260000Y36145000D03*
%TD*%
D21*
%TO.C,C49*%
X-38420000Y37805000D03*
X-38420000Y40755000D03*
%TD*%
D29*
%TO.C,*%
X-54287500Y-35840000D03*
%TD*%
D31*
%TO.C,R78*%
X-14785000Y21120000D03*
X-16435000Y21120000D03*
%TD*%
D34*
%TO.C,J6*%
X-72192835Y-25349999D03*
X-72192835Y-31129999D03*
D35*
X-70747835Y-24989999D03*
X-70747835Y-25789999D03*
D36*
X-70747835Y-26989999D03*
X-70747835Y-27989999D03*
X-70747835Y-28489999D03*
X-70747835Y-29489999D03*
D35*
X-70747835Y-31489999D03*
X-70747835Y-30689999D03*
D36*
X-70747835Y-29989999D03*
X-70747835Y-28989999D03*
X-70747835Y-27489999D03*
X-70747835Y-26489999D03*
D37*
X-71662835Y-23919999D03*
X-71662835Y-32559999D03*
X-75842835Y-23919999D03*
X-75842835Y-32559999D03*
%TD*%
D25*
%TO.C,R43*%
X-58910000Y36145000D03*
X-58910000Y34495000D03*
%TD*%
D38*
%TO.C,R20*%
X-9789999Y42987500D03*
X-9789999Y44812500D03*
%TD*%
D39*
%TO.C,Q1*%
X-2889999Y13287500D03*
X-4789999Y13287500D03*
X-3839999Y11412500D03*
%TD*%
D25*
%TO.C,R29*%
X-50635000Y-9855000D03*
X-50635000Y-11505000D03*
%TD*%
D15*
%TO.C,C3*%
X-20589578Y-8260422D03*
X-22139578Y-8260422D03*
%TD*%
D29*
%TO.C,*%
X-41587500Y-35840000D03*
%TD*%
D12*
%TO.C,C73*%
X-61286429Y-30935000D03*
X-61286429Y-29385000D03*
%TD*%
D40*
%TO.C,C13*%
X-27047858Y-26300000D03*
X-29997858Y-26300000D03*
%TD*%
D14*
%TO.C,C16*%
X-26486429Y-32185000D03*
X-26486429Y-33735000D03*
%TD*%
D41*
%TO.C,U10*%
X-47735000Y-9442500D03*
X-46785000Y-9442500D03*
X-45835000Y-9442500D03*
X-45835000Y-7167500D03*
X-47735000Y-7167500D03*
%TD*%
D29*
%TO.C,*%
X-44127500Y-35840000D03*
%TD*%
D42*
%TO.C,C31*%
X-4514999Y19300000D03*
X-2614999Y19300000D03*
%TD*%
D21*
%TO.C,C39*%
X-62400000Y37800000D03*
X-62400000Y40750000D03*
%TD*%
D12*
%TO.C,C66*%
X-45200000Y-30335000D03*
X-45200000Y-28785000D03*
%TD*%
D11*
%TO.C,R79*%
X-16260000Y18045000D03*
X-16260000Y19695000D03*
%TD*%
D31*
%TO.C,R89*%
X-66423928Y-27800000D03*
X-68073928Y-27800000D03*
%TD*%
D11*
%TO.C,R57*%
X-44860000Y34495000D03*
X-44860000Y36145000D03*
%TD*%
D15*
%TO.C,C72*%
X-58161429Y-34060000D03*
X-59711429Y-34060000D03*
%TD*%
D43*
%TO.C,C32*%
X-5514999Y21000000D03*
X-2814999Y21000000D03*
%TD*%
D11*
%TO.C,R15*%
X-71180000Y17575000D03*
X-71180000Y19225000D03*
%TD*%
D29*
%TO.C,*%
X-56827500Y-35840000D03*
%TD*%
D21*
%TO.C,C47*%
X-44820000Y37805000D03*
X-44820000Y40755000D03*
%TD*%
D11*
%TO.C,R37*%
X-65560000Y34495000D03*
X-65560000Y36145000D03*
%TD*%
D44*
%TO.C,Y1*%
X-64000000Y-26550000D03*
X-64000000Y-30250000D03*
%TD*%
D12*
%TO.C,C5*%
X-42436427Y-28210000D03*
X-42436427Y-26660000D03*
%TD*%
D16*
%TO.C,P9*%
X-13450000Y19300000D03*
%TD*%
D29*
%TO.C,*%
X-69527500Y-35840000D03*
%TD*%
D45*
%TO.C,U2*%
X-43024178Y-30620000D03*
X-43024178Y-31020000D03*
X-43024178Y-31420000D03*
X-43024178Y-31820000D03*
X-43024178Y-32220000D03*
X-43024178Y-32620000D03*
D46*
X-42479178Y-33165000D03*
X-42079178Y-33165000D03*
X-41679178Y-33165000D03*
X-41279178Y-33165000D03*
X-40879178Y-33165000D03*
X-40479178Y-33165000D03*
D45*
X-39934178Y-32620000D03*
X-39934178Y-32220000D03*
X-39934178Y-31820000D03*
X-39934178Y-31420000D03*
X-39934178Y-31020000D03*
X-39934178Y-30620000D03*
D46*
X-40479178Y-30075000D03*
X-40879178Y-30075000D03*
X-41279178Y-30075000D03*
X-41679178Y-30075000D03*
X-42079178Y-30075000D03*
X-42479178Y-30075000D03*
%TD*%
D41*
%TO.C,U11*%
X-41685000Y-9442500D03*
X-40735000Y-9442500D03*
X-39785000Y-9442500D03*
X-39785000Y-7167500D03*
X-41685000Y-7167500D03*
%TD*%
D24*
%TO.C,R85*%
X-64175000Y-11500000D03*
X-62525000Y-11500000D03*
%TD*%
D47*
%TO.C,D3*%
X-9839999Y-11800000D03*
X-9839999Y-13900000D03*
%TD*%
D12*
%TO.C,C15*%
X-26486429Y-29685000D03*
X-26486429Y-28135000D03*
%TD*%
D25*
%TO.C,R84*%
X-22690000Y36145000D03*
X-22690000Y34495000D03*
%TD*%
D12*
%TO.C,C50*%
X-39610000Y34545000D03*
X-39610000Y36095000D03*
%TD*%
%TO.C,C67*%
X-47536431Y-23775000D03*
X-47536431Y-22225000D03*
%TD*%
D48*
%TO.C,D6*%
X-8039999Y43400000D03*
X-4739999Y43400000D03*
%TD*%
D16*
%TO.C,P3*%
X-2589999Y46200000D03*
%TD*%
%TO.C,P1*%
X-2639999Y15150000D03*
%TD*%
D25*
%TO.C,R64*%
X-42210000Y36145000D03*
X-42210000Y34495000D03*
%TD*%
%TO.C,R32*%
X-59260000Y21195000D03*
X-59260000Y19545000D03*
%TD*%
D24*
%TO.C,R21*%
X-7639999Y41500000D03*
X-5989999Y41500000D03*
%TD*%
D12*
%TO.C,C14*%
X-67727500Y17695000D03*
X-67727500Y19245000D03*
%TD*%
%TO.C,C61*%
X-36750000Y-13075000D03*
X-36750000Y-11525000D03*
%TD*%
D19*
%TO.C,C54*%
X-41410000Y-11205000D03*
X-39860000Y-11205000D03*
%TD*%
D25*
%TO.C,R68*%
X-38535000Y-6880000D03*
X-38535000Y-8530000D03*
%TD*%
%TO.C,R7*%
X-39786429Y-26585000D03*
X-39786429Y-28235000D03*
%TD*%
D20*
%TO.C,H11*%
X-27327500Y9000042D03*
%TD*%
D49*
%TO.C,U14*%
X-57343627Y-33989997D03*
X-56843627Y-33989997D03*
X-56343627Y-33989997D03*
X-55843627Y-33989997D03*
X-55343627Y-33989997D03*
X-54843627Y-33989997D03*
X-54343627Y-33989997D03*
X-53843627Y-33989997D03*
X-53343627Y-33989997D03*
X-52843627Y-33989997D03*
X-52343627Y-33989997D03*
X-51843627Y-33989997D03*
X-51343627Y-33989997D03*
X-50843627Y-33989997D03*
X-50343627Y-33989997D03*
X-49843627Y-33989997D03*
D50*
X-47918627Y-32064997D03*
X-47918627Y-31564997D03*
X-47918627Y-31064997D03*
X-47918627Y-30564997D03*
X-47918627Y-30064997D03*
X-47918627Y-29564997D03*
X-47918627Y-29064997D03*
X-47918627Y-28564997D03*
X-47918627Y-28064997D03*
X-47918627Y-27564997D03*
X-47918627Y-27064997D03*
X-47918627Y-26564997D03*
X-47918627Y-26064997D03*
X-47918627Y-25564997D03*
X-47918627Y-25064997D03*
X-47918627Y-24564997D03*
D49*
X-49843627Y-22639997D03*
X-50343627Y-22639997D03*
X-50843627Y-22639997D03*
X-51343627Y-22639997D03*
X-51843627Y-22639997D03*
X-52343627Y-22639997D03*
X-52843627Y-22639997D03*
X-53343627Y-22639997D03*
X-53843627Y-22639997D03*
X-54343627Y-22639997D03*
X-54843627Y-22639997D03*
X-55343627Y-22639997D03*
X-55843627Y-22639997D03*
X-56343627Y-22639997D03*
X-56843627Y-22639997D03*
X-57343627Y-22639997D03*
D50*
X-59268627Y-24564997D03*
X-59268627Y-25064997D03*
X-59268627Y-25564997D03*
X-59268627Y-26064997D03*
X-59268627Y-26564997D03*
X-59268627Y-27064997D03*
X-59268627Y-27564997D03*
X-59268627Y-28064997D03*
X-59268627Y-28564997D03*
X-59268627Y-29064997D03*
X-59268627Y-29564997D03*
X-59268627Y-30064997D03*
X-59268627Y-30564997D03*
X-59268627Y-31064997D03*
X-59268627Y-31564997D03*
X-59268627Y-32064997D03*
%TD*%
D31*
%TO.C,R40*%
X-56285000Y21120000D03*
X-57935000Y21120000D03*
%TD*%
D17*
%TO.C,R42*%
X-74301836Y29463837D03*
X-74301836Y35388837D03*
%TD*%
D25*
%TO.C,R45*%
X-57610000Y36145000D03*
X-57610000Y34495000D03*
%TD*%
D18*
%TO.C,C17*%
X-46600000Y12520000D03*
X-49300000Y12520000D03*
%TD*%
D30*
%TO.C,U4*%
X-62985000Y12794958D03*
X-61715000Y12794958D03*
X-60445000Y12794958D03*
X-59175000Y12794958D03*
X-59175000Y17744958D03*
X-60445000Y17744958D03*
X-61715000Y17744958D03*
X-62985000Y17744958D03*
%TD*%
D19*
%TO.C,C2*%
X-25897152Y-8250424D03*
X-24347152Y-8250424D03*
%TD*%
D51*
%TO.C,Q2*%
X-4789999Y7812500D03*
X-2889999Y7812500D03*
X-3839999Y9687500D03*
%TD*%
D52*
%TO.C,CYA0650-68UH1*%
X-8839999Y3400000D03*
X-3639999Y3400000D03*
%TD*%
D31*
%TO.C,R86*%
X-69575000Y-22500000D03*
X-71225000Y-22500000D03*
%TD*%
D29*
%TO.C,*%
X-51747500Y-35840000D03*
%TD*%
D25*
%TO.C,R53*%
X-47585000Y-4080000D03*
X-47585000Y-5730000D03*
%TD*%
D53*
%TO.C,D10*%
X-68125000Y-29300000D03*
X-66250000Y-29300000D03*
%TD*%
D20*
%TO.C,H2*%
X-58860000Y46750000D03*
%TD*%
D25*
%TO.C,R70*%
X-17760000Y21195000D03*
X-17760000Y19545000D03*
%TD*%
D12*
%TO.C,C30*%
X-58390000Y-12545000D03*
X-58390000Y-10995000D03*
%TD*%
D14*
%TO.C,C12*%
X-56960000Y-10995000D03*
X-56960000Y-12545000D03*
%TD*%
D21*
%TO.C,C36*%
X-68800000Y37800000D03*
X-68800000Y40750000D03*
%TD*%
D15*
%TO.C,C7*%
X-29275000Y-3600000D03*
X-30825000Y-3600000D03*
%TD*%
D31*
%TO.C,R4*%
X-24297152Y-9730424D03*
X-25947152Y-9730424D03*
%TD*%
D14*
%TO.C,C4*%
X-34350000Y-6425000D03*
X-34350000Y-7975000D03*
%TD*%
D15*
%TO.C,C27*%
X-8539999Y41500000D03*
X-10089999Y41500000D03*
%TD*%
D24*
%TO.C,R39*%
X-63535000Y21120000D03*
X-61885000Y21120000D03*
%TD*%
D13*
%TO.C,D4*%
X-44612500Y18200000D03*
X-44612500Y14200000D03*
%TD*%
D24*
%TO.C,R59*%
X-42835000Y21200000D03*
X-41185000Y21200000D03*
%TD*%
D12*
%TO.C,C28*%
X-26000000Y17695000D03*
X-26000000Y19245000D03*
%TD*%
D16*
%TO.C,P5*%
X-13450000Y12000000D03*
%TD*%
D25*
%TO.C,R90*%
X-3089999Y-9575000D03*
X-3089999Y-11225000D03*
%TD*%
D39*
%TO.C,Q3*%
X-8250000Y9737500D03*
X-10150000Y9737500D03*
X-9200000Y7862500D03*
%TD*%
D31*
%TO.C,R23*%
X-3464999Y40075000D03*
X-5114999Y40075000D03*
%TD*%
D25*
%TO.C,R83*%
X-16090000Y36145000D03*
X-16090000Y34495000D03*
%TD*%
D47*
%TO.C,D5*%
X-2989999Y44650000D03*
X-2989999Y42550000D03*
%TD*%
D33*
%TO.C,CAP01*%
X-39140000Y-32810000D03*
X-38640000Y-32810000D03*
%TD*%
D13*
%TO.C,D1*%
X-8764999Y20550000D03*
X-8764999Y16550000D03*
%TD*%
%TO.C,D7*%
X-23770000Y17070000D03*
X-23770000Y13070000D03*
%TD*%
D29*
%TO.C,*%
X-49207500Y-35840000D03*
%TD*%
D25*
%TO.C,R1*%
X-23300000Y-3700003D03*
X-23300000Y-5350003D03*
%TD*%
D26*
%TO.C,SW3*%
X-74442835Y-22500000D03*
X-73142835Y-22500000D03*
%TD*%
D11*
%TO.C,R19*%
X-28712500Y17645000D03*
X-28712500Y19295000D03*
%TD*%
D12*
%TO.C,C6*%
X-41136429Y-28210000D03*
X-41136429Y-26660000D03*
%TD*%
D11*
%TO.C,R17*%
X-50550000Y17375000D03*
X-50550000Y19025000D03*
%TD*%
D25*
%TO.C,R72*%
X-38535000Y-3980000D03*
X-38535000Y-5630000D03*
%TD*%
D12*
%TO.C,C52*%
X-42935000Y-5680000D03*
X-42935000Y-4130000D03*
%TD*%
D11*
%TO.C,R14*%
X-69837500Y17605000D03*
X-69837500Y19255000D03*
%TD*%
D31*
%TO.C,R87*%
X-69475000Y-34000000D03*
X-71125000Y-34000000D03*
%TD*%
D19*
%TO.C,C35*%
X-53510000Y-11180000D03*
X-51960000Y-11180000D03*
%TD*%
D31*
%TO.C,R41*%
X-56275000Y19700000D03*
X-57925000Y19700000D03*
%TD*%
D29*
%TO.C,*%
X-72067500Y-35840000D03*
%TD*%
D31*
%TO.C,R22*%
X-3489999Y41500000D03*
X-5139999Y41500000D03*
%TD*%
D11*
%TO.C,R26*%
X-2389999Y40175000D03*
X-2389999Y41825000D03*
%TD*%
D25*
%TO.C,R10*%
X-2700000Y11375000D03*
X-2700000Y9725000D03*
%TD*%
D12*
%TO.C,C34*%
X-55035000Y-8755000D03*
X-55035000Y-7205000D03*
%TD*%
D29*
%TO.C,*%
X-66987500Y-35840000D03*
%TD*%
D40*
%TO.C,C23*%
X-4914999Y-16000000D03*
X-7864999Y-16000000D03*
%TD*%
D12*
%TO.C,C65*%
X-46136429Y-23775000D03*
X-46136429Y-22225000D03*
%TD*%
D14*
%TO.C,C42*%
X-48985000Y-4130000D03*
X-48985000Y-5680000D03*
%TD*%
D12*
%TO.C,C20*%
X-47027500Y17695000D03*
X-47027500Y19245000D03*
%TD*%
D54*
%TO.C,D11*%
X-3089999Y-12612500D03*
X-3089999Y-14187500D03*
%TD*%
D19*
%TO.C,C63*%
X-64125000Y-12800000D03*
X-62575000Y-12800000D03*
%TD*%
%TO.C,C44*%
X-47460000Y-11205000D03*
X-45910000Y-11205000D03*
%TD*%
D20*
%TO.C,H7*%
X-68860000Y9000000D03*
%TD*%
D16*
%TO.C,P4*%
X-2589999Y-16050000D03*
%TD*%
D21*
%TO.C,C48*%
X-41620000Y37805000D03*
X-41620000Y40755000D03*
%TD*%
D20*
%TO.C,H5*%
X-27372500Y46700000D03*
%TD*%
D15*
%TO.C,C19*%
X-46335000Y14320000D03*
X-47885000Y14320000D03*
%TD*%
D55*
%TO.C,C8*%
X-8200000Y11700000D03*
X-10100000Y11700000D03*
%TD*%
D21*
%TO.C,C56*%
X-24050000Y37785000D03*
X-24050000Y40735000D03*
%TD*%
D11*
%TO.C,R74*%
X-26610000Y34495000D03*
X-26610000Y36145000D03*
%TD*%
D29*
%TO.C,*%
X-59367500Y-35840000D03*
%TD*%
%TO.C,*%
X-61907500Y-35840000D03*
%TD*%
D20*
%TO.C,H12*%
X-17277500Y9000042D03*
%TD*%
D16*
%TO.C,P7*%
X-75700000Y19300000D03*
%TD*%
D31*
%TO.C,R60*%
X-35585000Y21120000D03*
X-37235000Y21120000D03*
%TD*%
D21*
%TO.C,C58*%
X-17650000Y37785000D03*
X-17650000Y40735000D03*
%TD*%
D25*
%TO.C,R71*%
X-41535000Y-4080000D03*
X-41535000Y-5730000D03*
%TD*%
D20*
%TO.C,H4*%
X-38172500Y46700000D03*
%TD*%
D31*
%TO.C,R50*%
X-59715000Y-10200000D03*
X-61365000Y-10200000D03*
%TD*%
D11*
%TO.C,R58*%
X-46160000Y34495000D03*
X-46160000Y36145000D03*
%TD*%
D25*
%TO.C,R35*%
X-52035000Y-3955000D03*
X-52035000Y-5605000D03*
%TD*%
%TO.C,R81*%
X-17410000Y36145000D03*
X-17410000Y34495000D03*
%TD*%
D56*
%TO.C,U8*%
X-3880000Y34919999D03*
X-3880000Y36189999D03*
X-3880000Y37459999D03*
X-3880000Y38724999D03*
X-8880000Y38729999D03*
X-8880000Y37459999D03*
X-8880000Y36189999D03*
X-8880000Y34919999D03*
D57*
X-6380000Y36824999D03*
%TD*%
D21*
%TO.C,C38*%
X-59200000Y37800000D03*
X-59200000Y40750000D03*
%TD*%
D29*
%TO.C,*%
X-64447500Y-35840000D03*
%TD*%
D16*
%TO.C,P10*%
X-45000000Y12050000D03*
%TD*%
D19*
%TO.C,C10*%
X-33511429Y-26210000D03*
X-31961429Y-26210000D03*
%TD*%
D58*
%TO.C,C21*%
X-4852499Y-13500000D03*
X-7927499Y-13500000D03*
%TD*%
D11*
%TO.C,R76*%
X-25310000Y34495000D03*
X-25310000Y36145000D03*
%TD*%
%TO.C,R75*%
X-24010000Y34505000D03*
X-24010000Y36155000D03*
%TD*%
D31*
%TO.C,R88*%
X-66423928Y-32500000D03*
X-68073928Y-32500000D03*
%TD*%
D20*
%TO.C,H1*%
X-68942500Y46700000D03*
%TD*%
D11*
%TO.C,R38*%
X-66910000Y34495000D03*
X-66910000Y36145000D03*
%TD*%
D25*
%TO.C,R34*%
X-50635000Y-3955000D03*
X-50635000Y-5605000D03*
%TD*%
D12*
%TO.C,C41*%
X-61510000Y34545000D03*
X-61510000Y36095000D03*
%TD*%
%TO.C,C59*%
X-18760000Y34545000D03*
X-18760000Y36095000D03*
%TD*%
D25*
%TO.C,R63*%
X-38260000Y36145000D03*
X-38260000Y34495000D03*
%TD*%
%TO.C,R52*%
X-38560000Y21195000D03*
X-38560000Y19545000D03*
%TD*%
D20*
%TO.C,H6*%
X-17322500Y46700000D03*
%TD*%
D24*
%TO.C,R77*%
X-22035000Y21120000D03*
X-20385000Y21120000D03*
%TD*%
D41*
%TO.C,U9*%
X-53785000Y-9417500D03*
X-52835000Y-9417500D03*
X-51885000Y-9417500D03*
X-51885000Y-7142500D03*
X-53785000Y-7142500D03*
%TD*%
D59*
%TO.C, R3k*%
X-39150000Y-31680000D03*
X-39150000Y-32180000D03*
%TD*%
D25*
%TO.C,R54*%
X-44585000Y-3980000D03*
X-44585000Y-5630000D03*
%TD*%
D19*
%TO.C,C74*%
X-60681429Y-22700000D03*
X-59131429Y-22700000D03*
%TD*%
D11*
%TO.C,R61*%
X-37060000Y18045000D03*
X-37060000Y19695000D03*
%TD*%
D12*
%TO.C,C40*%
X-60210000Y34545000D03*
X-60210000Y36095000D03*
%TD*%
D60*
%TO.C,R25*%
X-9489999Y30237500D03*
X-9489999Y33162500D03*
%TD*%
D20*
%TO.C,H9*%
X-48177500Y9000042D03*
%TD*%
D16*
%TO.C,P2*%
X-75700000Y12000000D03*
%TD*%
D15*
%TO.C,C18*%
X-50585000Y-13000000D03*
X-52135000Y-13000000D03*
%TD*%
D25*
%TO.C,R67*%
X-38535000Y-9880000D03*
X-38535000Y-11530000D03*
%TD*%
D14*
%TO.C,C75*%
X-61136429Y-32585000D03*
X-61136429Y-34135000D03*
%TD*%
D31*
%TO.C,R5*%
X-20539578Y-9750423D03*
X-22189578Y-9750423D03*
%TD*%
D11*
%TO.C,R12*%
X-5789999Y16075000D03*
X-5789999Y17725000D03*
%TD*%
D20*
%TO.C,H8*%
X-58777500Y9000042D03*
%TD*%
D25*
%TO.C,R73*%
X-39935000Y-3980000D03*
X-39935000Y-5630000D03*
%TD*%
%TO.C,R44*%
X-62860000Y36145000D03*
X-62860000Y34495000D03*
%TD*%
D33*
%TO.C,CAP02*%
X-42870000Y-33900000D03*
X-42370000Y-33900000D03*
%TD*%
D30*
%TO.C,U1*%
X-32990000Y-10450000D03*
X-31720000Y-10450000D03*
X-30450000Y-10450000D03*
X-29180000Y-10450000D03*
X-29180000Y-5500000D03*
X-30450000Y-5500000D03*
X-31720000Y-5500000D03*
X-32990000Y-5500000D03*
%TD*%
D31*
%TO.C,R27*%
X-74735000Y21050000D03*
X-76385000Y21050000D03*
%TD*%
D25*
%TO.C,R46*%
X-64210000Y36145000D03*
X-64210000Y34495000D03*
%TD*%
D31*
%TO.C,R48*%
X-71125000Y14550000D03*
X-72775000Y14550000D03*
%TD*%
D25*
%TO.C,R2*%
X-22000002Y-3700002D03*
X-22000002Y-5350002D03*
%TD*%
D61*
%TO.C,L1*%
X-44448929Y-33000000D03*
X-46023929Y-33000000D03*
%TD*%
D21*
%TO.C,C55*%
X-27250000Y37785000D03*
X-27250000Y40735000D03*
%TD*%
D25*
%TO.C,R31*%
X-71130000Y36145000D03*
X-71130000Y34495000D03*
%TD*%
D14*
%TO.C,C33*%
X-55035000Y-4105000D03*
X-55035000Y-5655000D03*
%TD*%
D15*
%TO.C,C64*%
X-62125000Y-22700000D03*
X-63675000Y-22700000D03*
%TD*%
D53*
%TO.C,D9*%
X-68125000Y-31000000D03*
X-66250000Y-31000000D03*
%TD*%
D19*
%TO.C,C62*%
X-61315000Y-12800000D03*
X-59765000Y-12800000D03*
%TD*%
D12*
%TO.C,C51*%
X-40910000Y34545000D03*
X-40910000Y36095000D03*
%TD*%
D24*
%TO.C,R11*%
X-10139999Y13200000D03*
X-8489999Y13200000D03*
%TD*%
D25*
%TO.C,R66*%
X-43547500Y36145000D03*
X-43547500Y34495000D03*
%TD*%
%TO.C,R47*%
X-44585000Y-9880000D03*
X-44585000Y-11530000D03*
%TD*%
D52*
%TO.C,CYA0650-68UH2*%
X-8889999Y25500000D03*
X-3689999Y25500000D03*
%TD*%
D25*
%TO.C,R49*%
X-44585000Y-6880000D03*
X-44585000Y-8530000D03*
%TD*%
D11*
%TO.C,R56*%
X-47460000Y34495000D03*
X-47460000Y36145000D03*
%TD*%
D62*
%TO.C,C26*%
X-4804999Y45770000D03*
X-7754999Y45770000D03*
%TD*%
D25*
%TO.C,R33*%
X-53635000Y-4055000D03*
X-53635000Y-5705000D03*
%TD*%
D63*
%TO.C,D8*%
X-7189999Y32100000D03*
X-3189999Y32100000D03*
%TD*%
D25*
%TO.C,R82*%
X-21360000Y36145000D03*
X-21360000Y34495000D03*
%TD*%
D64*
%TO.C,Q11*%
X-35610000Y23370000D03*
D65*
X-38150000Y23370000D03*
X-40690000Y23370000D03*
%TD*%
D64*
%TO.C,Q5*%
X-66342500Y23369958D03*
D65*
X-68882500Y23369958D03*
X-71422500Y23369958D03*
%TD*%
D64*
%TO.C,Q12*%
X-29890000Y32470000D03*
D65*
X-27350000Y32470000D03*
X-24810000Y32470000D03*
%TD*%
D16*
%TO.C,P11*%
X-37236429Y-23235000D03*
D66*
X-37236429Y-25775000D03*
X-37236429Y-28315000D03*
X-37236429Y-30855000D03*
X-37236429Y-33395000D03*
%TD*%
D67*
%TO.C,H13*%
X-59400000Y28320000D03*
%TD*%
%TO.C,H15*%
X-17800000Y28300000D03*
%TD*%
D64*
%TO.C,Q9*%
X-45660000Y23370000D03*
D65*
X-48200000Y23370000D03*
X-50740000Y23370000D03*
%TD*%
D29*
%TO.C,U12*%
X-26867500Y-14645000D03*
X-29407500Y-14645000D03*
X-31947500Y-14645000D03*
X-34487500Y-14645000D03*
X-37027500Y-14645000D03*
X-39567500Y-14645000D03*
X-42107500Y-14645000D03*
X-44647500Y-14645000D03*
X-47187500Y-14645000D03*
X-49727500Y-14645000D03*
X-52267500Y-14645000D03*
X-54807500Y-14645000D03*
X-57347500Y-14645000D03*
X-59887500Y-14645000D03*
X-62427500Y-14645000D03*
X-64967500Y-14645000D03*
X-67507500Y-14645000D03*
X-70047500Y-14645000D03*
X-72587500Y-14645000D03*
X-75127500Y-14645000D03*
X-75127500Y595000D03*
X-72587500Y595000D03*
X-70047500Y595000D03*
X-67507500Y595000D03*
X-64967500Y595000D03*
X-62427500Y595000D03*
X-59911105Y604993D03*
X-57347500Y595000D03*
X-54807500Y595000D03*
X-52267500Y595000D03*
X-49727500Y595000D03*
X-47187500Y595000D03*
X-44647500Y595000D03*
X-42107500Y595000D03*
X-39567500Y595000D03*
X-37027500Y595000D03*
X-34487500Y595000D03*
X-31947500Y595000D03*
X-29407500Y595000D03*
X-26867500Y595000D03*
%TD*%
D64*
%TO.C,Q14*%
X-19840000Y32470000D03*
D65*
X-17300000Y32470000D03*
X-14760000Y32470000D03*
%TD*%
D64*
%TO.C,Q4*%
X-71460000Y32470000D03*
D65*
X-68920000Y32470000D03*
X-66380000Y32470000D03*
%TD*%
D68*
%TO.C,J4*%
X-6489999Y7450000D03*
D28*
X-6489999Y9450000D03*
X-6489999Y11450000D03*
X-6489999Y13450000D03*
%TD*%
D64*
%TO.C,Q15*%
X-14760000Y23370000D03*
D65*
X-17300000Y23370000D03*
X-19840000Y23370000D03*
%TD*%
D64*
%TO.C,Q7*%
X-56260000Y23370000D03*
D65*
X-58800000Y23370000D03*
X-61340000Y23370000D03*
%TD*%
D64*
%TO.C,Q13*%
X-24810000Y23370000D03*
D65*
X-27350000Y23370000D03*
X-29890000Y23370000D03*
%TD*%
D64*
%TO.C,Q10*%
X-40690000Y32470000D03*
D65*
X-38150000Y32470000D03*
X-35610000Y32470000D03*
%TD*%
D64*
%TO.C,Q8*%
X-50760000Y32470000D03*
D65*
X-48220000Y32470000D03*
X-45680000Y32470000D03*
%TD*%
D67*
%TO.C,H14*%
X-38600000Y28300000D03*
%TD*%
D64*
%TO.C,Q6*%
X-61377500Y32520000D03*
D65*
X-58837500Y32520000D03*
X-56297500Y32520000D03*
%TD*%
D29*
%TO.C,U12*%
X-26347500Y-35840000D03*
X-28887500Y-35840000D03*
X-31427500Y-35840000D03*
X-33967500Y-35840000D03*
X-36507500Y-35840000D03*
X-39047500Y-35840000D03*
X-41587500Y-35840000D03*
X-44127500Y-35840000D03*
X-46667500Y-35840000D03*
X-49207500Y-35840000D03*
X-51747500Y-35840000D03*
X-54287500Y-35840000D03*
X-56827500Y-35840000D03*
X-59367500Y-35840000D03*
X-61907500Y-35840000D03*
X-64447500Y-35840000D03*
X-66987500Y-35840000D03*
X-69527500Y-35840000D03*
X-72067500Y-35840000D03*
X-74607500Y-35840000D03*
X-74607500Y-20600000D03*
X-72067500Y-20600000D03*
X-69527500Y-20600000D03*
X-66987500Y-20600000D03*
X-64447500Y-20600000D03*
X-61907500Y-20600000D03*
X-59391105Y-20590007D03*
X-56827500Y-20600000D03*
X-54287500Y-20600000D03*
X-51747500Y-20600000D03*
X-49207500Y-20600000D03*
X-46667500Y-20600000D03*
X-44127500Y-20600000D03*
X-41587500Y-20600000D03*
X-39047500Y-20600000D03*
X-36507500Y-20600000D03*
X-33967500Y-20600000D03*
X-31427500Y-20600000D03*
X-28887500Y-20600000D03*
X-26347500Y-20600000D03*
%TD*%
G36*
X-43485347Y30622520D02*
G01*
X-43473008Y30621899D01*
X-43296593Y30604326D01*
X-43272394Y30599487D01*
X-43108749Y30549679D01*
X-43085956Y30540216D01*
X-42935147Y30459459D01*
X-42914637Y30445734D01*
X-42782469Y30337136D01*
X-42765027Y30319676D01*
X-42656560Y30187394D01*
X-42642857Y30166871D01*
X-42562252Y30015982D01*
X-42552811Y29993180D01*
X-42503167Y29829481D01*
X-42498352Y29805277D01*
X-42480958Y29628854D01*
X-42480350Y29616514D01*
X-42480055Y28019296D01*
X-42480055Y28019289D01*
X-42461287Y27826645D01*
X-42405748Y27641206D01*
X-42315522Y27469938D01*
X-41359460Y26016414D01*
X-41359457Y26016410D01*
X-41236012Y25863790D01*
X-41085162Y25738247D01*
X-41085142Y25738232D01*
X-39923935Y24950973D01*
X-39914118Y24943595D01*
X-39778572Y24830973D01*
X-39761320Y24813533D01*
X-39654066Y24681580D01*
X-39640520Y24661128D01*
X-39560866Y24510891D01*
X-39551539Y24488202D01*
X-39502508Y24325384D01*
X-39497754Y24301318D01*
X-39480598Y24125925D01*
X-39480000Y24113659D01*
X-39480000Y23240031D01*
X-39480610Y23227651D01*
X-39498086Y23050651D01*
X-39502928Y23026369D01*
X-39552866Y22862168D01*
X-39562363Y22839301D01*
X-39643452Y22688030D01*
X-39657237Y22667463D01*
X-39766335Y22534978D01*
X-39783877Y22517503D01*
X-39916783Y22408908D01*
X-39937402Y22395202D01*
X-40088978Y22314693D01*
X-40111882Y22305282D01*
X-40276276Y22255971D01*
X-40300576Y22251222D01*
X-40477648Y22234422D01*
X-40490031Y22233860D01*
X-42997668Y22243443D01*
X-43009985Y22244094D01*
X-43186070Y22262074D01*
X-43210221Y22266962D01*
X-43373508Y22317048D01*
X-43396245Y22326542D01*
X-43546665Y22407451D01*
X-43567120Y22421189D01*
X-43698916Y22529824D01*
X-43716306Y22547280D01*
X-43824441Y22679490D01*
X-43838101Y22699998D01*
X-43918436Y22850723D01*
X-43927844Y22873496D01*
X-43977309Y23036972D01*
X-43982105Y23061141D01*
X-43999415Y23237295D01*
X-44000019Y23249615D01*
X-44000032Y23997766D01*
X-44000034Y23997790D01*
X-44019237Y24192799D01*
X-44019239Y24192809D01*
X-44076113Y24380347D01*
X-44168469Y24553190D01*
X-44168470Y24553191D01*
X-44225462Y24622664D01*
X-44253203Y24688016D01*
X-44254047Y24702577D01*
X-44254048Y24743397D01*
X-44294870Y24743417D01*
X-44362981Y24763453D01*
X-44374767Y24772039D01*
X-44444215Y24829064D01*
X-44617022Y24921504D01*
X-44804522Y24978461D01*
X-44999545Y24997760D01*
X-48599519Y24999513D01*
X-48599522Y24999513D01*
X-48794672Y24980382D01*
X-48982346Y24923533D01*
X-49155314Y24831154D01*
X-49155321Y24831149D01*
X-49224467Y24774435D01*
X-49289823Y24746700D01*
X-49304433Y24745857D01*
X-49346000Y24745877D01*
X-49346000Y24704311D01*
X-49366002Y24636190D01*
X-49374617Y24624358D01*
X-49431365Y24555240D01*
X-49523833Y24382310D01*
X-49580774Y24194663D01*
X-49600000Y23999512D01*
X-49600000Y23102400D01*
X-49600604Y23090079D01*
X-49617913Y22913924D01*
X-49622708Y22889755D01*
X-49672175Y22726264D01*
X-49681584Y22703489D01*
X-49761923Y22552759D01*
X-49775583Y22532252D01*
X-49883717Y22400044D01*
X-49901109Y22382587D01*
X-50032917Y22273946D01*
X-50053372Y22260208D01*
X-50203793Y22179302D01*
X-50226532Y22169807D01*
X-50389832Y22119722D01*
X-50413984Y22114835D01*
X-50590080Y22096861D01*
X-50602398Y22096211D01*
X-53880016Y22083819D01*
X-53892398Y22084382D01*
X-54069462Y22101188D01*
X-54093761Y22105938D01*
X-54258146Y22155252D01*
X-54281048Y22164662D01*
X-54432619Y22245173D01*
X-54453238Y22258880D01*
X-54586134Y22367473D01*
X-54603675Y22384947D01*
X-54712774Y22517437D01*
X-54726559Y22538005D01*
X-54807641Y22689269D01*
X-54817137Y22712134D01*
X-54867074Y22876332D01*
X-54871916Y22900615D01*
X-54889390Y23077611D01*
X-54890000Y23089990D01*
X-54890000Y28913813D01*
X-54889393Y28926163D01*
X-54872002Y29102738D01*
X-54867184Y29126963D01*
X-54817483Y29290809D01*
X-54808030Y29313630D01*
X-54727319Y29464628D01*
X-54713596Y29485166D01*
X-54604980Y29617515D01*
X-54587515Y29634980D01*
X-54455166Y29743596D01*
X-54434628Y29757319D01*
X-54283630Y29838030D01*
X-54260809Y29847483D01*
X-54096963Y29897184D01*
X-54072738Y29902002D01*
X-53896163Y29919393D01*
X-53883813Y29920000D01*
X-52578258Y29920000D01*
X-52561812Y29918922D01*
X-52418216Y29900018D01*
X-52386444Y29891505D01*
X-52260327Y29839266D01*
X-52231840Y29822819D01*
X-52123541Y29739717D01*
X-52100284Y29716460D01*
X-52017182Y29608161D01*
X-52000735Y29579674D01*
X-51948496Y29453557D01*
X-51939983Y29421785D01*
X-51921078Y29278189D01*
X-51920000Y29261743D01*
X-51920000Y29149998D01*
X-51901941Y29012827D01*
X-51901940Y29012823D01*
X-51848996Y28885006D01*
X-51848989Y28884994D01*
X-51764768Y28775233D01*
X-51655007Y28691012D01*
X-51654995Y28691005D01*
X-51527178Y28638061D01*
X-51527174Y28638060D01*
X-51390001Y28620001D01*
X-51252839Y28638062D01*
X-51125029Y28691013D01*
X-51015284Y28775242D01*
X-50931083Y28885012D01*
X-50931080Y28885017D01*
X-50878166Y29012834D01*
X-50860142Y29149994D01*
X-50860142Y29149999D01*
X-50860268Y29623668D01*
X-50859663Y29636031D01*
X-50842286Y29812772D01*
X-50837465Y29837020D01*
X-50787717Y30001013D01*
X-50778254Y30023853D01*
X-50697439Y30174979D01*
X-50683697Y30195533D01*
X-50574931Y30327962D01*
X-50557442Y30345434D01*
X-50424910Y30454078D01*
X-50404345Y30467800D01*
X-50253147Y30548475D01*
X-50230297Y30557918D01*
X-50066259Y30607513D01*
X-50042006Y30612312D01*
X-49865241Y30629525D01*
X-49852879Y30630118D01*
X-43485347Y30622520D01*
G37*
G36*
X-64215347Y30602520D02*
G01*
X-64203008Y30601899D01*
X-64026593Y30584326D01*
X-64002394Y30579487D01*
X-63838749Y30529679D01*
X-63815956Y30520216D01*
X-63665147Y30439459D01*
X-63644637Y30425734D01*
X-63512469Y30317136D01*
X-63495027Y30299676D01*
X-63386560Y30167394D01*
X-63372857Y30146871D01*
X-63292252Y29995982D01*
X-63282811Y29973180D01*
X-63233167Y29809481D01*
X-63228352Y29785277D01*
X-63210958Y29608854D01*
X-63210350Y29596514D01*
X-63210055Y27999296D01*
X-63210055Y27999289D01*
X-63191287Y27806645D01*
X-63135748Y27621206D01*
X-63045522Y27449938D01*
X-62089460Y25996414D01*
X-62089457Y25996410D01*
X-61966012Y25843790D01*
X-61815162Y25718247D01*
X-61815142Y25718232D01*
X-60653935Y24930973D01*
X-60644118Y24923595D01*
X-60508572Y24810973D01*
X-60491320Y24793533D01*
X-60384066Y24661580D01*
X-60370520Y24641128D01*
X-60290866Y24490891D01*
X-60281539Y24468202D01*
X-60232508Y24305384D01*
X-60227754Y24281318D01*
X-60210598Y24105925D01*
X-60210000Y24093659D01*
X-60210000Y23220031D01*
X-60210610Y23207651D01*
X-60228086Y23030651D01*
X-60232928Y23006369D01*
X-60282866Y22842168D01*
X-60292363Y22819301D01*
X-60373452Y22668030D01*
X-60387237Y22647463D01*
X-60496335Y22514978D01*
X-60513877Y22497503D01*
X-60646783Y22388908D01*
X-60667402Y22375202D01*
X-60818978Y22294693D01*
X-60841882Y22285282D01*
X-61006276Y22235971D01*
X-61030576Y22231222D01*
X-61207648Y22214422D01*
X-61220031Y22213860D01*
X-63727668Y22223443D01*
X-63739985Y22224094D01*
X-63916070Y22242074D01*
X-63940221Y22246962D01*
X-64103508Y22297048D01*
X-64126245Y22306542D01*
X-64276665Y22387451D01*
X-64297120Y22401189D01*
X-64428916Y22509824D01*
X-64446306Y22527280D01*
X-64554441Y22659490D01*
X-64568101Y22679998D01*
X-64648436Y22830723D01*
X-64657844Y22853496D01*
X-64707309Y23016972D01*
X-64712105Y23041141D01*
X-64729415Y23217295D01*
X-64730019Y23229615D01*
X-64730032Y23977766D01*
X-64730034Y23977790D01*
X-64749237Y24172799D01*
X-64749239Y24172809D01*
X-64806113Y24360347D01*
X-64898469Y24533190D01*
X-64898470Y24533191D01*
X-64955462Y24602664D01*
X-64983203Y24668016D01*
X-64984047Y24682577D01*
X-64984048Y24723397D01*
X-65024870Y24723417D01*
X-65092981Y24743453D01*
X-65104767Y24752039D01*
X-65174215Y24809064D01*
X-65347022Y24901504D01*
X-65534522Y24958461D01*
X-65729545Y24977760D01*
X-69329519Y24979513D01*
X-69329522Y24979513D01*
X-69524672Y24960382D01*
X-69712346Y24903533D01*
X-69885314Y24811154D01*
X-69885321Y24811149D01*
X-69954467Y24754435D01*
X-70019823Y24726700D01*
X-70034433Y24725857D01*
X-70076000Y24725877D01*
X-70076000Y24684311D01*
X-70096002Y24616190D01*
X-70104617Y24604358D01*
X-70161365Y24535240D01*
X-70253833Y24362310D01*
X-70310774Y24174663D01*
X-70330000Y23979512D01*
X-70330000Y23082400D01*
X-70330604Y23070079D01*
X-70347913Y22893924D01*
X-70352708Y22869755D01*
X-70402175Y22706264D01*
X-70411584Y22683489D01*
X-70491923Y22532759D01*
X-70505583Y22512252D01*
X-70613717Y22380044D01*
X-70631109Y22362587D01*
X-70762917Y22253946D01*
X-70783372Y22240208D01*
X-70933793Y22159302D01*
X-70956532Y22149807D01*
X-71119832Y22099722D01*
X-71143984Y22094835D01*
X-71320080Y22076861D01*
X-71332398Y22076211D01*
X-74610016Y22063819D01*
X-74622398Y22064382D01*
X-74799462Y22081188D01*
X-74823761Y22085938D01*
X-74988146Y22135252D01*
X-75011048Y22144662D01*
X-75162619Y22225173D01*
X-75183238Y22238880D01*
X-75316134Y22347473D01*
X-75333675Y22364947D01*
X-75442774Y22497437D01*
X-75456559Y22518005D01*
X-75537641Y22669269D01*
X-75547137Y22692134D01*
X-75597074Y22856332D01*
X-75601916Y22880615D01*
X-75619390Y23057611D01*
X-75620000Y23069990D01*
X-75620000Y28893813D01*
X-75619393Y28906163D01*
X-75602002Y29082738D01*
X-75597184Y29106963D01*
X-75547483Y29270809D01*
X-75538030Y29293630D01*
X-75457319Y29444628D01*
X-75443596Y29465166D01*
X-75334980Y29597515D01*
X-75317515Y29614980D01*
X-75185166Y29723596D01*
X-75164628Y29737319D01*
X-75013630Y29818030D01*
X-74990809Y29827483D01*
X-74826963Y29877184D01*
X-74802738Y29882002D01*
X-74626163Y29899393D01*
X-74613813Y29900000D01*
X-73308258Y29900000D01*
X-73291812Y29898922D01*
X-73148216Y29880018D01*
X-73116444Y29871505D01*
X-72990327Y29819266D01*
X-72961840Y29802819D01*
X-72853541Y29719717D01*
X-72830284Y29696460D01*
X-72747182Y29588161D01*
X-72730735Y29559674D01*
X-72678496Y29433557D01*
X-72669983Y29401785D01*
X-72651078Y29258189D01*
X-72650000Y29241743D01*
X-72650000Y29129998D01*
X-72631941Y28992827D01*
X-72631940Y28992823D01*
X-72578996Y28865006D01*
X-72578989Y28864994D01*
X-72494768Y28755233D01*
X-72385007Y28671012D01*
X-72384995Y28671005D01*
X-72257178Y28618061D01*
X-72257174Y28618060D01*
X-72120001Y28600001D01*
X-71982839Y28618062D01*
X-71855029Y28671013D01*
X-71745284Y28755242D01*
X-71661083Y28865012D01*
X-71661080Y28865017D01*
X-71608166Y28992834D01*
X-71590142Y29129994D01*
X-71590142Y29129999D01*
X-71590268Y29603668D01*
X-71589663Y29616031D01*
X-71572286Y29792772D01*
X-71567465Y29817020D01*
X-71517717Y29981013D01*
X-71508254Y30003853D01*
X-71427439Y30154979D01*
X-71413697Y30175533D01*
X-71304931Y30307962D01*
X-71287442Y30325434D01*
X-71154910Y30434078D01*
X-71134345Y30447800D01*
X-70983147Y30528475D01*
X-70960297Y30537918D01*
X-70796259Y30587513D01*
X-70772006Y30592312D01*
X-70595241Y30609525D01*
X-70582879Y30610118D01*
X-64215347Y30602520D01*
G37*
G36*
X-22665347Y30602520D02*
G01*
X-22653008Y30601899D01*
X-22476593Y30584326D01*
X-22452394Y30579487D01*
X-22288749Y30529679D01*
X-22265956Y30520216D01*
X-22115147Y30439459D01*
X-22094637Y30425734D01*
X-21962469Y30317136D01*
X-21945027Y30299676D01*
X-21836560Y30167394D01*
X-21822857Y30146871D01*
X-21742252Y29995982D01*
X-21732811Y29973180D01*
X-21683167Y29809481D01*
X-21678352Y29785277D01*
X-21660958Y29608854D01*
X-21660350Y29596514D01*
X-21660055Y27999296D01*
X-21660055Y27999289D01*
X-21641287Y27806645D01*
X-21585748Y27621206D01*
X-21495522Y27449938D01*
X-20539460Y25996414D01*
X-20539457Y25996410D01*
X-20416012Y25843790D01*
X-20265162Y25718247D01*
X-20265142Y25718232D01*
X-19103935Y24930973D01*
X-19094118Y24923595D01*
X-18958572Y24810973D01*
X-18941320Y24793533D01*
X-18834066Y24661580D01*
X-18820520Y24641128D01*
X-18740866Y24490891D01*
X-18731539Y24468202D01*
X-18682508Y24305384D01*
X-18677754Y24281318D01*
X-18660598Y24105925D01*
X-18660000Y24093659D01*
X-18660000Y23220031D01*
X-18660610Y23207651D01*
X-18678086Y23030651D01*
X-18682928Y23006369D01*
X-18732866Y22842168D01*
X-18742363Y22819301D01*
X-18823452Y22668030D01*
X-18837237Y22647463D01*
X-18946335Y22514978D01*
X-18963877Y22497503D01*
X-19096783Y22388908D01*
X-19117402Y22375202D01*
X-19268978Y22294693D01*
X-19291882Y22285282D01*
X-19456276Y22235971D01*
X-19480576Y22231222D01*
X-19657648Y22214422D01*
X-19670031Y22213860D01*
X-22177668Y22223443D01*
X-22189985Y22224094D01*
X-22366070Y22242074D01*
X-22390221Y22246962D01*
X-22553508Y22297048D01*
X-22576245Y22306542D01*
X-22726665Y22387451D01*
X-22747120Y22401189D01*
X-22878916Y22509824D01*
X-22896306Y22527280D01*
X-23004441Y22659490D01*
X-23018101Y22679998D01*
X-23098436Y22830723D01*
X-23107844Y22853496D01*
X-23157309Y23016972D01*
X-23162105Y23041141D01*
X-23179415Y23217295D01*
X-23180019Y23229615D01*
X-23180032Y23977766D01*
X-23180034Y23977790D01*
X-23199237Y24172799D01*
X-23199239Y24172809D01*
X-23256113Y24360347D01*
X-23348469Y24533190D01*
X-23348470Y24533191D01*
X-23405462Y24602664D01*
X-23433203Y24668016D01*
X-23434047Y24682577D01*
X-23434048Y24723397D01*
X-23474870Y24723417D01*
X-23542981Y24743453D01*
X-23554767Y24752039D01*
X-23624215Y24809064D01*
X-23797022Y24901504D01*
X-23984522Y24958461D01*
X-24179545Y24977760D01*
X-27779519Y24979513D01*
X-27779522Y24979513D01*
X-27974672Y24960382D01*
X-28162346Y24903533D01*
X-28335314Y24811154D01*
X-28335321Y24811149D01*
X-28404467Y24754435D01*
X-28469823Y24726700D01*
X-28484433Y24725857D01*
X-28526000Y24725877D01*
X-28526000Y24684311D01*
X-28546002Y24616190D01*
X-28554617Y24604358D01*
X-28611365Y24535240D01*
X-28703833Y24362310D01*
X-28760774Y24174663D01*
X-28780000Y23979512D01*
X-28780000Y23082400D01*
X-28780604Y23070079D01*
X-28797913Y22893924D01*
X-28802708Y22869755D01*
X-28852175Y22706264D01*
X-28861584Y22683489D01*
X-28941923Y22532759D01*
X-28955583Y22512252D01*
X-29063717Y22380044D01*
X-29081109Y22362587D01*
X-29212917Y22253946D01*
X-29233372Y22240208D01*
X-29383793Y22159302D01*
X-29406532Y22149807D01*
X-29569832Y22099722D01*
X-29593984Y22094835D01*
X-29770080Y22076861D01*
X-29782398Y22076211D01*
X-33060016Y22063819D01*
X-33072398Y22064382D01*
X-33249462Y22081188D01*
X-33273761Y22085938D01*
X-33438146Y22135252D01*
X-33461048Y22144662D01*
X-33612619Y22225173D01*
X-33633238Y22238880D01*
X-33766134Y22347473D01*
X-33783675Y22364947D01*
X-33892774Y22497437D01*
X-33906559Y22518005D01*
X-33987641Y22669269D01*
X-33997137Y22692134D01*
X-34047074Y22856332D01*
X-34051916Y22880615D01*
X-34069390Y23057611D01*
X-34070000Y23069990D01*
X-34070000Y28893813D01*
X-34069393Y28906163D01*
X-34052002Y29082738D01*
X-34047184Y29106963D01*
X-33997483Y29270809D01*
X-33988030Y29293630D01*
X-33907319Y29444628D01*
X-33893596Y29465166D01*
X-33784980Y29597515D01*
X-33767515Y29614980D01*
X-33635166Y29723596D01*
X-33614628Y29737319D01*
X-33463630Y29818030D01*
X-33440809Y29827483D01*
X-33276963Y29877184D01*
X-33252738Y29882002D01*
X-33076163Y29899393D01*
X-33063813Y29900000D01*
X-31758258Y29900000D01*
X-31741812Y29898922D01*
X-31598216Y29880018D01*
X-31566444Y29871505D01*
X-31440327Y29819266D01*
X-31411840Y29802819D01*
X-31303541Y29719717D01*
X-31280284Y29696460D01*
X-31197182Y29588161D01*
X-31180735Y29559674D01*
X-31128496Y29433557D01*
X-31119983Y29401785D01*
X-31101078Y29258189D01*
X-31100000Y29241743D01*
X-31100000Y29129998D01*
X-31081941Y28992827D01*
X-31081940Y28992823D01*
X-31028996Y28865006D01*
X-31028989Y28864994D01*
X-30944768Y28755233D01*
X-30835007Y28671012D01*
X-30834995Y28671005D01*
X-30707178Y28618061D01*
X-30707174Y28618060D01*
X-30570001Y28600001D01*
X-30432839Y28618062D01*
X-30305029Y28671013D01*
X-30195284Y28755242D01*
X-30111083Y28865012D01*
X-30111080Y28865017D01*
X-30058166Y28992834D01*
X-30040142Y29129994D01*
X-30040142Y29129999D01*
X-30040268Y29603668D01*
X-30039663Y29616031D01*
X-30022286Y29792772D01*
X-30017465Y29817020D01*
X-29967717Y29981013D01*
X-29958254Y30003853D01*
X-29877439Y30154979D01*
X-29863697Y30175533D01*
X-29754931Y30307962D01*
X-29737442Y30325434D01*
X-29604910Y30434078D01*
X-29584345Y30447800D01*
X-29433147Y30528475D01*
X-29410297Y30537918D01*
X-29246259Y30587513D01*
X-29222006Y30592312D01*
X-29045241Y30609525D01*
X-29032879Y30610118D01*
X-22665347Y30602520D01*
G37*
G36*
X-43593837Y61149393D02*
G01*
X-43417263Y61132002D01*
X-43393038Y61127184D01*
X-43229192Y61077483D01*
X-43206371Y61068030D01*
X-43055373Y60987319D01*
X-43034835Y60973596D01*
X-42902486Y60864980D01*
X-42885021Y60847515D01*
X-42776405Y60715166D01*
X-42762682Y60694628D01*
X-42681971Y60543630D01*
X-42672518Y60520809D01*
X-42622817Y60356963D01*
X-42617999Y60332739D01*
X-42600607Y60156164D01*
X-42600000Y60143813D01*
X-42600000Y52149994D01*
X-42580787Y51954917D01*
X-42523880Y51767317D01*
X-42431470Y51594430D01*
X-42374601Y51525136D01*
X-42346847Y51459789D01*
X-42346000Y51445202D01*
X-42346000Y51404000D01*
X-42304799Y51404000D01*
X-42236678Y51383998D01*
X-42224866Y51375400D01*
X-42155568Y51318529D01*
X-41982684Y51226121D01*
X-41795084Y51169214D01*
X-41600007Y51150001D01*
X-41599991Y51150000D01*
X-14856187Y51150000D01*
X-14843837Y51149393D01*
X-14667263Y51132002D01*
X-14643038Y51127184D01*
X-14479192Y51077483D01*
X-14456371Y51068030D01*
X-14305373Y50987319D01*
X-14284835Y50973596D01*
X-14152486Y50864980D01*
X-14135021Y50847515D01*
X-14026405Y50715166D01*
X-14012682Y50694628D01*
X-13931971Y50543630D01*
X-13922518Y50520809D01*
X-13872817Y50356963D01*
X-13867999Y50332739D01*
X-13850607Y50156164D01*
X-13850000Y50143813D01*
X-13850000Y42456188D01*
X-13850607Y42443837D01*
X-13867999Y42267262D01*
X-13872817Y42243038D01*
X-13922518Y42079192D01*
X-13931971Y42056371D01*
X-14012682Y41905373D01*
X-14026405Y41884835D01*
X-14135021Y41752486D01*
X-14152486Y41735021D01*
X-14284835Y41626405D01*
X-14305373Y41612682D01*
X-14456371Y41531971D01*
X-14479192Y41522518D01*
X-14643038Y41472817D01*
X-14667262Y41467999D01*
X-14843836Y41450607D01*
X-14856187Y41450000D01*
X-28400007Y41450000D01*
X-28595084Y41430787D01*
X-28782684Y41373880D01*
X-28955568Y41281472D01*
X-29024866Y41224600D01*
X-29090213Y41196847D01*
X-29104799Y41196000D01*
X-29146000Y41196000D01*
X-29146000Y41154800D01*
X-29166002Y41086679D01*
X-29174600Y41074868D01*
X-29231469Y41005573D01*
X-29231471Y41005569D01*
X-29323880Y40832684D01*
X-29380787Y40645084D01*
X-29400000Y40450007D01*
X-29400000Y38082078D01*
X-29400792Y38067970D01*
X-29416588Y37927779D01*
X-29422867Y37900271D01*
X-29467110Y37773833D01*
X-29479352Y37748413D01*
X-29550620Y37634990D01*
X-29568212Y37612931D01*
X-29662931Y37518212D01*
X-29684990Y37500620D01*
X-29798413Y37429352D01*
X-29823833Y37417110D01*
X-29950271Y37372867D01*
X-29977779Y37366588D01*
X-30124999Y37350000D01*
X-30286328Y37331823D01*
X-30286334Y37331821D01*
X-30439570Y37278201D01*
X-30577031Y37191829D01*
X-30691829Y37077031D01*
X-30778201Y36939570D01*
X-30831821Y36786334D01*
X-30831823Y36786328D01*
X-30850000Y36625001D01*
X-30850000Y36557079D01*
X-30850792Y36542971D01*
X-30868469Y36386088D01*
X-30874748Y36358581D01*
X-30924536Y36216294D01*
X-30936778Y36190873D01*
X-31016983Y36063228D01*
X-31034575Y36041169D01*
X-31141169Y35934575D01*
X-31163228Y35916983D01*
X-31290873Y35836778D01*
X-31316294Y35824536D01*
X-31458581Y35774748D01*
X-31486088Y35768469D01*
X-31642971Y35750792D01*
X-31657079Y35750000D01*
X-34967922Y35750000D01*
X-34982030Y35750792D01*
X-35122222Y35766588D01*
X-35149730Y35772867D01*
X-35276168Y35817110D01*
X-35301588Y35829352D01*
X-35415011Y35900620D01*
X-35437070Y35918212D01*
X-35531789Y36012931D01*
X-35549381Y36034990D01*
X-35620649Y36148413D01*
X-35632891Y36173833D01*
X-35677134Y36300271D01*
X-35683413Y36327780D01*
X-35699208Y36467971D01*
X-35700000Y36482078D01*
X-35700000Y36924999D01*
X-35700001Y36925006D01*
X-35720934Y37030240D01*
X-35780546Y37119455D01*
X-35869761Y37179067D01*
X-35975000Y37200000D01*
X-35975001Y37200000D01*
X-36055658Y37216044D01*
X-36101078Y37234858D01*
X-36148616Y37266622D01*
X-36183379Y37301385D01*
X-36215143Y37348923D01*
X-36233957Y37394345D01*
X-36247579Y37462830D01*
X-36250000Y37487410D01*
X-36250000Y40499991D01*
X-36250001Y40500007D01*
X-36269214Y40695084D01*
X-36326121Y40882684D01*
X-36418530Y41055569D01*
X-36418532Y41055573D01*
X-36475400Y41124868D01*
X-36503153Y41190215D01*
X-36504000Y41204800D01*
X-36504000Y41246000D01*
X-36545201Y41246000D01*
X-36613322Y41266002D01*
X-36625134Y41274600D01*
X-36694433Y41331472D01*
X-36867317Y41423880D01*
X-37054917Y41480787D01*
X-37249994Y41500000D01*
X-49150007Y41500000D01*
X-49345084Y41480787D01*
X-49532684Y41423880D01*
X-49705568Y41331472D01*
X-49774866Y41274600D01*
X-49840213Y41246847D01*
X-49854799Y41246000D01*
X-49896000Y41246000D01*
X-49896000Y41204800D01*
X-49916002Y41136679D01*
X-49924600Y41124868D01*
X-49981469Y41055573D01*
X-49981471Y41055569D01*
X-50073880Y40882684D01*
X-50130787Y40695084D01*
X-50150000Y40500007D01*
X-50150000Y38132079D01*
X-50150792Y38117971D01*
X-50167842Y37966651D01*
X-50174121Y37939144D01*
X-50222060Y37802141D01*
X-50234302Y37776720D01*
X-50311529Y37653815D01*
X-50329121Y37631756D01*
X-50431756Y37529121D01*
X-50453815Y37511529D01*
X-50576720Y37434302D01*
X-50602141Y37422060D01*
X-50739144Y37374121D01*
X-50766651Y37367842D01*
X-50925000Y37350000D01*
X-51097457Y37330568D01*
X-51261261Y37273251D01*
X-51261263Y37273250D01*
X-51408206Y37180919D01*
X-51408210Y37180916D01*
X-51530916Y37058210D01*
X-51530919Y37058206D01*
X-51623250Y36911263D01*
X-51623251Y36911261D01*
X-51680568Y36747457D01*
X-51700000Y36575002D01*
X-51700000Y36557079D01*
X-51700792Y36542971D01*
X-51718469Y36386088D01*
X-51724748Y36358581D01*
X-51774536Y36216294D01*
X-51786778Y36190873D01*
X-51866983Y36063228D01*
X-51884575Y36041169D01*
X-51991169Y35934575D01*
X-52013228Y35916983D01*
X-52140873Y35836778D01*
X-52166294Y35824536D01*
X-52308581Y35774748D01*
X-52336088Y35768469D01*
X-52492971Y35750792D01*
X-52507079Y35750000D01*
X-55567922Y35750000D01*
X-55582030Y35750792D01*
X-55722222Y35766588D01*
X-55749730Y35772867D01*
X-55876168Y35817110D01*
X-55901588Y35829352D01*
X-56015011Y35900620D01*
X-56037070Y35918212D01*
X-56131789Y36012931D01*
X-56149381Y36034990D01*
X-56220649Y36148413D01*
X-56232891Y36173833D01*
X-56277134Y36300271D01*
X-56283413Y36327780D01*
X-56299208Y36467971D01*
X-56300000Y36482078D01*
X-56300000Y36824997D01*
X-56318356Y36940883D01*
X-56371619Y37045420D01*
X-56454581Y37128382D01*
X-56559118Y37181645D01*
X-56675001Y37200000D01*
X-56771172Y37215233D01*
X-56808663Y37227415D01*
X-56877641Y37262561D01*
X-56909533Y37285733D01*
X-56964268Y37340468D01*
X-56987440Y37372360D01*
X-57022586Y37441338D01*
X-57034768Y37478830D01*
X-57048449Y37565208D01*
X-57050000Y37584919D01*
X-57050000Y40449991D01*
X-57050001Y40450007D01*
X-57069214Y40645084D01*
X-57126121Y40832684D01*
X-57218530Y41005569D01*
X-57218532Y41005573D01*
X-57275400Y41074868D01*
X-57303153Y41140215D01*
X-57304000Y41154800D01*
X-57304000Y41196000D01*
X-57345201Y41196000D01*
X-57413322Y41216002D01*
X-57425134Y41224600D01*
X-57494433Y41281472D01*
X-57667317Y41373880D01*
X-57854917Y41430787D01*
X-58049994Y41450000D01*
X-69950007Y41450000D01*
X-70145084Y41430787D01*
X-70332684Y41373880D01*
X-70505568Y41281472D01*
X-70574866Y41224600D01*
X-70640213Y41196847D01*
X-70654799Y41196000D01*
X-70696000Y41196000D01*
X-70696000Y41154800D01*
X-70716002Y41086679D01*
X-70724600Y41074868D01*
X-70781469Y41005573D01*
X-70781471Y41005569D01*
X-70873880Y40832684D01*
X-70930787Y40645084D01*
X-70950000Y40450007D01*
X-70950000Y38007078D01*
X-70950792Y37992970D01*
X-70965961Y37858342D01*
X-70972240Y37830835D01*
X-71014634Y37709681D01*
X-71026876Y37684260D01*
X-71095166Y37575577D01*
X-71112758Y37553518D01*
X-71203518Y37462758D01*
X-71225577Y37445166D01*
X-71334260Y37376876D01*
X-71359681Y37364634D01*
X-71480835Y37322240D01*
X-71508342Y37315961D01*
X-71649999Y37300000D01*
X-71650000Y37300000D01*
X-71805760Y37282451D01*
X-71805768Y37282450D01*
X-71953722Y37230677D01*
X-72086443Y37147283D01*
X-72086446Y37147281D01*
X-72197281Y37036446D01*
X-72197283Y37036443D01*
X-72280677Y36903722D01*
X-72332450Y36755768D01*
X-72332451Y36755760D01*
X-72350000Y36600002D01*
X-72350000Y36532079D01*
X-72350792Y36517971D01*
X-72367842Y36366651D01*
X-72374121Y36339144D01*
X-72422060Y36202141D01*
X-72434302Y36176720D01*
X-72511529Y36053815D01*
X-72529121Y36031756D01*
X-72631756Y35929121D01*
X-72653815Y35911529D01*
X-72776720Y35834302D01*
X-72802141Y35822060D01*
X-72939144Y35774121D01*
X-72966651Y35767842D01*
X-73117971Y35750792D01*
X-73132079Y35750000D01*
X-75093813Y35750000D01*
X-75106164Y35750607D01*
X-75282739Y35767999D01*
X-75306963Y35772817D01*
X-75470809Y35822518D01*
X-75493630Y35831971D01*
X-75644628Y35912682D01*
X-75665166Y35926405D01*
X-75797515Y36035021D01*
X-75814980Y36052486D01*
X-75923596Y36184835D01*
X-75937319Y36205373D01*
X-76018030Y36356371D01*
X-76027483Y36379192D01*
X-76077184Y36543038D01*
X-76082002Y36567263D01*
X-76099393Y36743838D01*
X-76100000Y36756188D01*
X-76100000Y48893813D01*
X-76099393Y48906163D01*
X-76082002Y49082738D01*
X-76077184Y49106963D01*
X-76027483Y49270809D01*
X-76018030Y49293630D01*
X-75937319Y49444628D01*
X-75923596Y49465166D01*
X-75814980Y49597515D01*
X-75797515Y49614980D01*
X-75665166Y49723596D01*
X-75644628Y49737319D01*
X-75493630Y49818030D01*
X-75470809Y49827483D01*
X-75306963Y49877184D01*
X-75282738Y49882002D01*
X-75106163Y49899393D01*
X-75093813Y49900000D01*
X-69725007Y49900000D01*
X-69724998Y49900001D01*
X-69563240Y49921296D01*
X-69412502Y49983734D01*
X-69412499Y49983736D01*
X-69283059Y50083059D01*
X-69183736Y50212499D01*
X-69183734Y50212502D01*
X-69121296Y50363240D01*
X-69100000Y50525000D01*
X-69080870Y50670314D01*
X-69072357Y50702087D01*
X-69022615Y50822174D01*
X-69006169Y50850660D01*
X-68927041Y50953782D01*
X-68903782Y50977041D01*
X-68800660Y51056169D01*
X-68772174Y51072615D01*
X-68652087Y51122357D01*
X-68620314Y51130870D01*
X-68483187Y51148922D01*
X-68466742Y51150000D01*
X-47550009Y51150000D01*
X-47549994Y51150001D01*
X-47354917Y51169214D01*
X-47167317Y51226121D01*
X-46994433Y51318529D01*
X-46925134Y51375400D01*
X-46859787Y51403153D01*
X-46845201Y51404000D01*
X-46804000Y51404000D01*
X-46804000Y51445202D01*
X-46783998Y51513323D01*
X-46775399Y51525136D01*
X-46718531Y51594430D01*
X-46626121Y51767317D01*
X-46569214Y51954917D01*
X-46550001Y52149994D01*
X-46550000Y52150010D01*
X-46550000Y60143813D01*
X-46549393Y60156163D01*
X-46532002Y60332738D01*
X-46527184Y60356963D01*
X-46477483Y60520809D01*
X-46468030Y60543630D01*
X-46387319Y60694628D01*
X-46373596Y60715166D01*
X-46264980Y60847515D01*
X-46247515Y60864980D01*
X-46115166Y60973596D01*
X-46094628Y60987319D01*
X-45943630Y61068030D01*
X-45920809Y61077483D01*
X-45756963Y61127184D01*
X-45732738Y61132002D01*
X-45556163Y61149393D01*
X-45543813Y61150000D01*
X-43606187Y61150000D01*
X-43593837Y61149393D01*
G37*
M02*
