%TF.GenerationSoftware,KiCad,Pcbnew,7.0.10*%
%TF.CreationDate,2024-07-31T12:40:02+02:00*%
%TF.ProjectId,foc,666f632e-6b69-4636-9164-5f7063625858,rev?*%
%TF.SameCoordinates,PXc0145d0PY6b671e0*%
%TF.FileFunction,Profile,NP*%
%FSLAX46Y46*%
G04 Gerber Fmt 4.6, Leading zero omitted, Abs format (unit mm)*
G04 Created by KiCad (PCBNEW 7.0.10) date 2024-07-31 12:40:02*
%MOMM*%
%LPD*%
G01*
G04 APERTURE LIST*
%TA.AperFunction,Profile*%
%ADD10C,0.050000*%
%TD*%
G04 APERTURE END LIST*
D10*
X-42250000Y51550000D02*
X-12260000Y51550000D01*
X-12260000Y33320000D01*
X-10800000Y33320000D01*
X-10800000Y47200000D01*
X-1700000Y47200000D01*
X-1700000Y-17000000D01*
X-10800000Y-17030000D01*
X-10800000Y-6780000D01*
X-12260000Y-6780000D01*
X-12260000Y-17030000D01*
X-32110000Y-17030000D01*
X-32110000Y-18530000D01*
X-25110000Y-18530000D01*
X-25110000Y-37930000D01*
X-76910000Y-37930000D01*
X-76910000Y-18530000D01*
X-69910000Y-18530000D01*
X-69910000Y-17030000D01*
X-76910000Y-17030000D01*
X-76910000Y51550000D01*
X-46900000Y51550000D01*
X-46900000Y61550000D01*
X-42250000Y61550000D01*
X-42250000Y51550000D01*
X-66800000Y-9600000D02*
X-66800000Y-7625000D01*
X-66800000Y-10275000D02*
X-66800000Y-9600000D01*
X-64910000Y-17030000D02*
X-37110000Y-17030000D01*
X-37110000Y-18530000D01*
X-64910000Y-18530000D01*
X-64910000Y-17030000D01*
X-12260000Y28287500D02*
X-10810000Y28287500D01*
X-10810000Y-1812500D01*
X-12260000Y-1812500D01*
X-12260000Y28287500D01*
X-67450000Y-7625000D02*
X-67450000Y-9600000D01*
X-66800000Y-7625000D02*
G75*
G03*
X-67450000Y-7625000I-325000J0D01*
G01*
X-67450000Y-10275000D02*
G75*
G03*
X-66800000Y-10275000I325000J0D01*
G01*
X-67450000Y-9600000D02*
X-67450000Y-10275000D01*
M02*
